<?xml version="1.0" encoding="utf-8" standalone="no"?>
<!DOCTYPE svg PUBLIC "-//W3C//DTD SVG 1.1//EN"
  "http://www.w3.org/Graphics/SVG/1.1/DTD/svg11.dtd">
<!-- Created with matplotlib (https://matplotlib.org/) -->
<svg height="385.291875pt" version="1.1" viewBox="0 0 514.029936 385.291875" width="514.029936pt" xmlns="http://www.w3.org/2000/svg" xmlns:xlink="http://www.w3.org/1999/xlink">
 <defs>
  <style type="text/css">
*{stroke-linecap:butt;stroke-linejoin:round;}
  </style>
 </defs>
 <g id="figure_1">
  <g id="patch_1">
   <path d="M 0 385.291875 
L 514.029936 385.291875 
L 514.029936 0 
L 0 0 
z
" style="fill:#ffffff;"/>
  </g>
  <g id="axes_1">
   <g id="patch_2">
    <path d="M 53.53875 334.8 
L 499.93875 334.8 
L 499.93875 57.6 
L 53.53875 57.6 
z
" style="fill:#ffffff;"/>
   </g>
   <g id="PathCollection_1">
    <defs>
     <path d="M 0 4.472136 
C 1.186024 4.472136 2.323632 4.000923 3.162278 3.162278 
C 4.000923 2.323632 4.472136 1.186024 4.472136 0 
C 4.472136 -1.186024 4.000923 -2.323632 3.162278 -3.162278 
C 2.323632 -4.000923 1.186024 -4.472136 0 -4.472136 
C -1.186024 -4.472136 -2.323632 -4.000923 -3.162278 -3.162278 
C -4.000923 -2.323632 -4.472136 -1.186024 -4.472136 0 
C -4.472136 1.186024 -4.000923 2.323632 -3.162278 3.162278 
C -2.323632 4.000923 -1.186024 4.472136 0 4.472136 
z
" id="m3a388822c5" style="stroke:#ffffff;"/>
    </defs>
    <g clip-path="url(#pa29b568c88)">
     <use style="fill:#0034e5;stroke:#ffffff;" x="83.839207" xlink:href="#m3a388822c5" y="301.207105"/>
     <use style="fill:#0034e5;stroke:#ffffff;" x="86.847822" xlink:href="#m3a388822c5" y="292.737648"/>
     <use style="fill:#0034e5;stroke:#ffffff;" x="88.488885" xlink:href="#m3a388822c5" y="303.380399"/>
     <use style="fill:#0034e5;stroke:#ffffff;" x="90.403459" xlink:href="#m3a388822c5" y="306.097018"/>
     <use style="fill:#0034e5;stroke:#ffffff;" x="93.959095" xlink:href="#m3a388822c5" y="300.759662"/>
     <use style="fill:#0034e5;stroke:#ffffff;" x="97.788242" xlink:href="#m3a388822c5" y="299.225571"/>
     <use style="fill:#0034e5;stroke:#ffffff;" x="99.429305" xlink:href="#m3a388822c5" y="315.557241"/>
     <use style="fill:#0034e5;stroke:#ffffff;" x="105.720046" xlink:href="#m3a388822c5" y="313.511788"/>
     <use style="fill:#0034e5;stroke:#ffffff;" x="113.37834" xlink:href="#m3a388822c5" y="309.644602"/>
     <use style="fill:#0034e5;stroke:#ffffff;" x="141.82343" xlink:href="#m3a388822c5" y="308.110511"/>
     <use style="fill:#0034e5;stroke:#ffffff;" x="148.114171" xlink:href="#m3a388822c5" y="302.229832"/>
     <use style="fill:#0034e5;stroke:#ffffff;" x="190.234786" xlink:href="#m3a388822c5" y="280.049442"/>
    </g>
   </g>
   <g id="PathCollection_2">
    <defs>
     <path d="M 0 4.472136 
C 1.186024 4.472136 2.323632 4.000923 3.162278 3.162278 
C 4.000923 2.323632 4.472136 1.186024 4.472136 0 
C 4.472136 -1.186024 4.000923 -2.323632 3.162278 -3.162278 
C 2.323632 -4.000923 1.186024 -4.472136 0 -4.472136 
C -1.186024 -4.472136 -2.323632 -4.000923 -3.162278 -3.162278 
C -4.000923 -2.323632 -4.472136 -1.186024 -4.472136 0 
C -4.472136 1.186024 -4.000923 2.323632 -3.162278 3.162278 
C -2.323632 4.000923 -1.186024 4.472136 0 4.472136 
z
" id="m14cb7db352" style="stroke:#ffffff;"/>
    </defs>
    <g clip-path="url(#pa29b568c88)">
     <use style="fill:#0036e4;stroke:#ffffff;" x="84.112718" xlink:href="#m14cb7db352" y="314.310793"/>
     <use style="fill:#0036e4;stroke:#ffffff;" x="86.300801" xlink:href="#m14cb7db352" y="317.538775"/>
     <use style="fill:#0036e4;stroke:#ffffff;" x="87.941864" xlink:href="#m14cb7db352" y="308.941477"/>
     <use style="fill:#0036e4;stroke:#ffffff;" x="90.129948" xlink:href="#m14cb7db352" y="310.82713"/>
     <use style="fill:#0036e4;stroke:#ffffff;" x="95.873668" xlink:href="#m14cb7db352" y="313.671589"/>
     <use style="fill:#0036e4;stroke:#ffffff;" x="100.523347" xlink:href="#m14cb7db352" y="292.801568"/>
     <use style="fill:#0036e4;stroke:#ffffff;" x="105.446535" xlink:href="#m14cb7db352" y="313.096305"/>
     <use style="fill:#0036e4;stroke:#ffffff;" x="117.207486" xlink:href="#m14cb7db352" y="309.42088"/>
     <use style="fill:#0036e4;stroke:#ffffff;" x="119.12206" xlink:href="#m14cb7db352" y="296.381112"/>
     <use style="fill:#0036e4;stroke:#ffffff;" x="121.036633" xlink:href="#m14cb7db352" y="304.435087"/>
     <use style="fill:#0036e4;stroke:#ffffff;" x="122.951207" xlink:href="#m14cb7db352" y="316.86761"/>
     <use style="fill:#0036e4;stroke:#ffffff;" x="130.062479" xlink:href="#m14cb7db352" y="306.128978"/>
     <use style="fill:#0036e4;stroke:#ffffff;" x="131.977053" xlink:href="#m14cb7db352" y="314.470594"/>
    </g>
   </g>
   <g id="PathCollection_3">
    <defs>
     <path d="M 0 4.472136 
C 1.186024 4.472136 2.323632 4.000923 3.162278 3.162278 
C 4.000923 2.323632 4.472136 1.186024 4.472136 0 
C 4.472136 -1.186024 4.000923 -2.323632 3.162278 -3.162278 
C 2.323632 -4.000923 1.186024 -4.472136 0 -4.472136 
C -1.186024 -4.472136 -2.323632 -4.000923 -3.162278 -3.162278 
C -4.000923 -2.323632 -4.472136 -1.186024 -4.472136 0 
C -4.472136 1.186024 -4.000923 2.323632 -3.162278 3.162278 
C -2.323632 4.000923 -1.186024 4.472136 0 4.472136 
z
" id="m574299dbb5" style="stroke:#ffffff;"/>
    </defs>
    <g clip-path="url(#pa29b568c88)">
     <use style="fill:#003be1;stroke:#ffffff;" x="84.933249" xlink:href="#m574299dbb5" y="306.41662"/>
     <use style="fill:#003be1;stroke:#ffffff;" x="86.027291" xlink:href="#m574299dbb5" y="316.420167"/>
     <use style="fill:#003be1;stroke:#ffffff;" x="87.668354" xlink:href="#m574299dbb5" y="307.88679"/>
     <use style="fill:#003be1;stroke:#ffffff;" x="89.582927" xlink:href="#m574299dbb5" y="311.690055"/>
     <use style="fill:#003be1;stroke:#ffffff;" x="96.420689" xlink:href="#m574299dbb5" y="310.635368"/>
     <use style="fill:#003be1;stroke:#ffffff;" x="98.335263" xlink:href="#m574299dbb5" y="310.699289"/>
     <use style="fill:#003be1;stroke:#ffffff;" x="99.976326" xlink:href="#m574299dbb5" y="310.795169"/>
     <use style="fill:#003be1;stroke:#ffffff;" x="105.173025" xlink:href="#m574299dbb5" y="311.913777"/>
     <use style="fill:#003be1;stroke:#ffffff;" x="113.65185" xlink:href="#m574299dbb5" y="304.658808"/>
     <use style="fill:#003be1;stroke:#ffffff;" x="119.669081" xlink:href="#m574299dbb5" y="304.88253"/>
     <use style="fill:#003be1;stroke:#ffffff;" x="122.404186" xlink:href="#m574299dbb5" y="309.101278"/>
     <use style="fill:#003be1;stroke:#ffffff;" x="124.318759" xlink:href="#m574299dbb5" y="304.530967"/>
     <use style="fill:#003be1;stroke:#ffffff;" x="140.455878" xlink:href="#m574299dbb5" y="302.293752"/>
     <use style="fill:#003be1;stroke:#ffffff;" x="181.48245" xlink:href="#m574299dbb5" y="308.621875"/>
     <use style="fill:#003be1;stroke:#ffffff;" x="185.311597" xlink:href="#m574299dbb5" y="299.03381"/>
     <use style="fill:#003be1;stroke:#ffffff;" x="187.226171" xlink:href="#m574299dbb5" y="300.280259"/>
     <use style="fill:#003be1;stroke:#ffffff;" x="195.704996" xlink:href="#m574299dbb5" y="297.787362"/>
    </g>
   </g>
   <g id="PathCollection_4">
    <defs>
     <path d="M 0 4.472136 
C 1.186024 4.472136 2.323632 4.000923 3.162278 3.162278 
C 4.000923 2.323632 4.472136 1.186024 4.472136 0 
C 4.472136 -1.186024 4.000923 -2.323632 3.162278 -3.162278 
C 2.323632 -4.000923 1.186024 -4.472136 0 -4.472136 
C -1.186024 -4.472136 -2.323632 -4.000923 -3.162278 -3.162278 
C -4.000923 -2.323632 -4.472136 -1.186024 -4.472136 0 
C -4.472136 1.186024 -4.000923 2.323632 -3.162278 3.162278 
C -2.323632 4.000923 -1.186024 4.472136 0 4.472136 
z
" id="mdf3a3d0f56" style="stroke:#ffffff;"/>
    </defs>
    <g clip-path="url(#pa29b568c88)">
     <use style="fill:#0040df;stroke:#ffffff;" x="86.847822" xlink:href="#mdf3a3d0f56" y="297.275998"/>
     <use style="fill:#0040df;stroke:#ffffff;" x="88.488885" xlink:href="#mdf3a3d0f56" y="288.742621"/>
     <use style="fill:#0040df;stroke:#ffffff;" x="90.403459" xlink:href="#mdf3a3d0f56" y="311.402413"/>
     <use style="fill:#0040df;stroke:#ffffff;" x="96.147179" xlink:href="#mdf3a3d0f56" y="311.945737"/>
     <use style="fill:#0040df;stroke:#ffffff;" x="99.429305" xlink:href="#mdf3a3d0f56" y="314.502554"/>
     <use style="fill:#0040df;stroke:#ffffff;" x="117.207486" xlink:href="#mdf3a3d0f56" y="310.411647"/>
     <use style="fill:#0040df;stroke:#ffffff;" x="121.036633" xlink:href="#mdf3a3d0f56" y="307.663068"/>
     <use style="fill:#0040df;stroke:#ffffff;" x="122.951207" xlink:href="#mdf3a3d0f56" y="312.776703"/>
     <use style="fill:#0040df;stroke:#ffffff;" x="131.977053" xlink:href="#mdf3a3d0f56" y="303.827842"/>
     <use style="fill:#0040df;stroke:#ffffff;" x="134.985668" xlink:href="#mdf3a3d0f56" y="303.987644"/>
     <use style="fill:#0040df;stroke:#ffffff;" x="143.464493" xlink:href="#mdf3a3d0f56" y="285.482679"/>
     <use style="fill:#0040df;stroke:#ffffff;" x="145.379066" xlink:href="#mdf3a3d0f56" y="305.681535"/>
     <use style="fill:#0040df;stroke:#ffffff;" x="146.746619" xlink:href="#mdf3a3d0f56" y="302.453553"/>
     <use style="fill:#0040df;stroke:#ffffff;" x="148.387682" xlink:href="#mdf3a3d0f56" y="273.146036"/>
     <use style="fill:#0040df;stroke:#ffffff;" x="149.208213" xlink:href="#mdf3a3d0f56" y="297.275998"/>
     <use style="fill:#0040df;stroke:#ffffff;" x="190.234786" xlink:href="#mdf3a3d0f56" y="311.370453"/>
    </g>
   </g>
   <g id="PathCollection_5">
    <defs>
     <path d="M 0 4.472136 
C 1.186024 4.472136 2.323632 4.000923 3.162278 3.162278 
C 4.000923 2.323632 4.472136 1.186024 4.472136 0 
C 4.472136 -1.186024 4.000923 -2.323632 3.162278 -3.162278 
C 2.323632 -4.000923 1.186024 -4.472136 0 -4.472136 
C -1.186024 -4.472136 -2.323632 -4.000923 -3.162278 -3.162278 
C -4.000923 -2.323632 -4.472136 -1.186024 -4.472136 0 
C -4.472136 1.186024 -4.000923 2.323632 -3.162278 3.162278 
C -2.323632 4.000923 -1.186024 4.472136 0 4.472136 
z
" id="m8499a8880a" style="stroke:#ffffff;"/>
    </defs>
    <g clip-path="url(#pa29b568c88)">
     <use style="fill:#0046dc;stroke:#ffffff;" x="97.788242" xlink:href="#m8499a8880a" y="283.277424"/>
     <use style="fill:#0046dc;stroke:#ffffff;" x="114.472381" xlink:href="#m8499a8880a" y="233.866931"/>
     <use style="fill:#0046dc;stroke:#ffffff;" x="135.532689" xlink:href="#m8499a8880a" y="272.187229"/>
     <use style="fill:#0046dc;stroke:#ffffff;" x="233.996464" xlink:href="#m8499a8880a" y="260.905273"/>
    </g>
   </g>
   <g id="PathCollection_6">
    <defs>
     <path d="M 0 4.472136 
C 1.186024 4.472136 2.323632 4.000923 3.162278 3.162278 
C 4.000923 2.323632 4.472136 1.186024 4.472136 0 
C 4.472136 -1.186024 4.000923 -2.323632 3.162278 -3.162278 
C 2.323632 -4.000923 1.186024 -4.472136 0 -4.472136 
C -1.186024 -4.472136 -2.323632 -4.000923 -3.162278 -3.162278 
C -4.000923 -2.323632 -4.472136 -1.186024 -4.472136 0 
C -4.472136 1.186024 -4.000923 2.323632 -3.162278 3.162278 
C -2.323632 4.000923 -1.186024 4.472136 0 4.472136 
z
" id="m66ec552168" style="stroke:#ffffff;"/>
    </defs>
    <g clip-path="url(#pa29b568c88)">
     <use style="fill:#0048db;stroke:#ffffff;" x="100.796857" xlink:href="#m66ec552168" y="159.591391"/>
     <use style="fill:#0048db;stroke:#ffffff;" x="119.669081" xlink:href="#m66ec552168" y="269.27885"/>
     <use style="fill:#0048db;stroke:#ffffff;" x="159.328101" xlink:href="#m66ec552168" y="278.067909"/>
     <use style="fill:#0048db;stroke:#ffffff;" x="207.192436" xlink:href="#m66ec552168" y="307.407387"/>
     <use style="fill:#0048db;stroke:#ffffff;" x="329.178113" xlink:href="#m66ec552168" y="303.795882"/>
    </g>
   </g>
   <g id="PathCollection_7">
    <defs>
     <path d="M 0 4.472136 
C 1.186024 4.472136 2.323632 4.000923 3.162278 3.162278 
C 4.000923 2.323632 4.472136 1.186024 4.472136 0 
C 4.472136 -1.186024 4.000923 -2.323632 3.162278 -3.162278 
C 2.323632 -4.000923 1.186024 -4.472136 0 -4.472136 
C -1.186024 -4.472136 -2.323632 -4.000923 -3.162278 -3.162278 
C -4.000923 -2.323632 -4.472136 -1.186024 -4.472136 0 
C -4.472136 1.186024 -4.000923 2.323632 -3.162278 3.162278 
C -2.323632 4.000923 -1.186024 4.472136 0 4.472136 
z
" id="mfb3272c577" style="stroke:#ffffff;"/>
    </defs>
    <g clip-path="url(#pa29b568c88)">
     <use style="fill:#004dd8;stroke:#ffffff;" x="117.754507" xlink:href="#mfb3272c577" y="207.819356"/>
     <use style="fill:#004dd8;stroke:#ffffff;" x="232.355401" xlink:href="#mfb3272c577" y="263.526011"/>
     <use style="fill:#004dd8;stroke:#ffffff;" x="349.691399" xlink:href="#mfb3272c577" y="258.9557"/>
    </g>
   </g>
   <g id="PathCollection_8">
    <defs>
     <path d="M 0 4.472136 
C 1.186024 4.472136 2.323632 4.000923 3.162278 3.162278 
C 4.000923 2.323632 4.472136 1.186024 4.472136 0 
C 4.472136 -1.186024 4.000923 -2.323632 3.162278 -3.162278 
C 2.323632 -4.000923 1.186024 -4.472136 0 -4.472136 
C -1.186024 -4.472136 -2.323632 -4.000923 -3.162278 -3.162278 
C -4.000923 -2.323632 -4.472136 -1.186024 -4.472136 0 
C -4.472136 1.186024 -4.000923 2.323632 -3.162278 3.162278 
C -2.323632 4.000923 -1.186024 4.472136 0 4.472136 
z
" id="m2a8edee1a3" style="stroke:#ffffff;"/>
    </defs>
    <g clip-path="url(#pa29b568c88)">
     <use style="fill:#0052d6;stroke:#ffffff;" x="119.12206" xlink:href="#m2a8edee1a3" y="280.432965"/>
     <use style="fill:#0052d6;stroke:#ffffff;" x="135.806199" xlink:href="#m2a8edee1a3" y="282.126856"/>
    </g>
   </g>
   <g id="PathCollection_9">
    <defs>
     <path d="M 0 4.472136 
C 1.186024 4.472136 2.323632 4.000923 3.162278 3.162278 
C 4.000923 2.323632 4.472136 1.186024 4.472136 0 
C 4.472136 -1.186024 4.000923 -2.323632 3.162278 -3.162278 
C 2.323632 -4.000923 1.186024 -4.472136 0 -4.472136 
C -1.186024 -4.472136 -2.323632 -4.000923 -3.162278 -3.162278 
C -4.000923 -2.323632 -4.472136 -1.186024 -4.472136 0 
C -4.472136 1.186024 -4.000923 2.323632 -3.162278 3.162278 
C -2.323632 4.000923 -1.186024 4.472136 0 4.472136 
z
" id="mdc5d312dbb" style="stroke:#ffffff;"/>
    </defs>
    <g clip-path="url(#pa29b568c88)">
     <use style="fill:#0058d3;stroke:#ffffff;" x="119.669081" xlink:href="#mdc5d312dbb" y="264.86834"/>
     <use style="fill:#0058d3;stroke:#ffffff;" x="121.857165" xlink:href="#mdc5d312dbb" y="301.590627"/>
     <use style="fill:#0058d3;stroke:#ffffff;" x="123.498227" xlink:href="#mdc5d312dbb" y="306.896023"/>
     <use style="fill:#0058d3;stroke:#ffffff;" x="125.13929" xlink:href="#mdc5d312dbb" y="294.974863"/>
     <use style="fill:#0058d3;stroke:#ffffff;" x="127.874395" xlink:href="#mdc5d312dbb" y="307.790909"/>
     <use style="fill:#0058d3;stroke:#ffffff;" x="129.515458" xlink:href="#mdc5d312dbb" y="304.626848"/>
     <use style="fill:#0058d3;stroke:#ffffff;" x="137.173752" xlink:href="#mdc5d312dbb" y="289.925149"/>
     <use style="fill:#0058d3;stroke:#ffffff;" x="149.755234" xlink:href="#mdc5d312dbb" y="279.410238"/>
     <use style="fill:#0058d3;stroke:#ffffff;" x="150.028745" xlink:href="#mdc5d312dbb" y="245.724171"/>
    </g>
   </g>
   <g id="PathCollection_10">
    <defs>
     <path d="M 0 4.472136 
C 1.186024 4.472136 2.323632 4.000923 3.162278 3.162278 
C 4.000923 2.323632 4.472136 1.186024 4.472136 0 
C 4.472136 -1.186024 4.000923 -2.323632 3.162278 -3.162278 
C 2.323632 -4.000923 1.186024 -4.472136 0 -4.472136 
C -1.186024 -4.472136 -2.323632 -4.000923 -3.162278 -3.162278 
C -4.000923 -2.323632 -4.472136 -1.186024 -4.472136 0 
C -4.472136 1.186024 -4.000923 2.323632 -3.162278 3.162278 
C -2.323632 4.000923 -1.186024 4.472136 0 4.472136 
z
" id="mb615ff73f9" style="stroke:#ffffff;"/>
    </defs>
    <g clip-path="url(#pa29b568c88)">
     <use style="fill:#005ad2;stroke:#ffffff;" x="121.857165" xlink:href="#mb615ff73f9" y="248.057267"/>
     <use style="fill:#005ad2;stroke:#ffffff;" x="202.816268" xlink:href="#mb615ff73f9" y="240.930139"/>
    </g>
   </g>
   <g id="PathCollection_11">
    <defs>
     <path d="M 0 4.472136 
C 1.186024 4.472136 2.323632 4.000923 3.162278 3.162278 
C 4.000923 2.323632 4.472136 1.186024 4.472136 0 
C 4.472136 -1.186024 4.000923 -2.323632 3.162278 -3.162278 
C 2.323632 -4.000923 1.186024 -4.472136 0 -4.472136 
C -1.186024 -4.472136 -2.323632 -4.000923 -3.162278 -3.162278 
C -4.000923 -2.323632 -4.472136 -1.186024 -4.472136 0 
C -4.472136 1.186024 -4.000923 2.323632 -3.162278 3.162278 
C -2.323632 4.000923 -1.186024 4.472136 0 4.472136 
z
" id="mdc18d634fc" style="stroke:#ffffff;"/>
    </defs>
    <g clip-path="url(#pa29b568c88)">
     <use style="fill:#005fcf;stroke:#ffffff;" x="124.318759" xlink:href="#mdc18d634fc" y="212.357707"/>
    </g>
   </g>
   <g id="PathCollection_12">
    <defs>
     <path d="M 0 4.472136 
C 1.186024 4.472136 2.323632 4.000923 3.162278 3.162278 
C 4.000923 2.323632 4.472136 1.186024 4.472136 0 
C 4.472136 -1.186024 4.000923 -2.323632 3.162278 -3.162278 
C 2.323632 -4.000923 1.186024 -4.472136 0 -4.472136 
C -1.186024 -4.472136 -2.323632 -4.000923 -3.162278 -3.162278 
C -4.000923 -2.323632 -4.472136 -1.186024 -4.472136 0 
C -4.472136 1.186024 -4.000923 2.323632 -3.162278 3.162278 
C -2.323632 4.000923 -1.186024 4.472136 0 4.472136 
z
" id="me139019fde" style="stroke:#ffffff;"/>
    </defs>
    <g clip-path="url(#pa29b568c88)">
     <use style="fill:#0064cd;stroke:#ffffff;" x="125.686311" xlink:href="#me139019fde" y="270.301577"/>
     <use style="fill:#0064cd;stroke:#ffffff;" x="128.147906" xlink:href="#me139019fde" y="301.175145"/>
     <use style="fill:#0064cd;stroke:#ffffff;" x="129.515458" xlink:href="#me139019fde" y="304.083524"/>
    </g>
   </g>
   <g id="PathCollection_13">
    <defs>
     <path d="M 0 4.472136 
C 1.186024 4.472136 2.323632 4.000923 3.162278 3.162278 
C 4.000923 2.323632 4.472136 1.186024 4.472136 0 
C 4.472136 -1.186024 4.000923 -2.323632 3.162278 -3.162278 
C 2.323632 -4.000923 1.186024 -4.472136 0 -4.472136 
C -1.186024 -4.472136 -2.323632 -4.000923 -3.162278 -3.162278 
C -4.000923 -2.323632 -4.472136 -1.186024 -4.472136 0 
C -4.472136 1.186024 -4.000923 2.323632 -3.162278 3.162278 
C -2.323632 4.000923 -1.186024 4.472136 0 4.472136 
z
" id="m1af6caae58" style="stroke:#ffffff;"/>
    </defs>
    <g clip-path="url(#pa29b568c88)">
     <use style="fill:#006aca;stroke:#ffffff;" x="126.780353" xlink:href="#m1af6caae58" y="309.037358"/>
    </g>
   </g>
   <g id="PathCollection_14">
    <defs>
     <path d="M 0 4.472136 
C 1.186024 4.472136 2.323632 4.000923 3.162278 3.162278 
C 4.000923 2.323632 4.472136 1.186024 4.472136 0 
C 4.472136 -1.186024 4.000923 -2.323632 3.162278 -3.162278 
C 2.323632 -4.000923 1.186024 -4.472136 0 -4.472136 
C -1.186024 -4.472136 -2.323632 -4.000923 -3.162278 -3.162278 
C -4.000923 -2.323632 -4.472136 -1.186024 -4.472136 0 
C -4.472136 1.186024 -4.000923 2.323632 -3.162278 3.162278 
C -2.323632 4.000923 -1.186024 4.472136 0 4.472136 
z
" id="m44441dfc82" style="stroke:#ffffff;"/>
    </defs>
    <g clip-path="url(#pa29b568c88)">
     <use style="fill:#006fc8;stroke:#ffffff;" x="130.062479" xlink:href="#m44441dfc82" y="193.149617"/>
    </g>
   </g>
   <g id="PathCollection_15">
    <defs>
     <path d="M 0 4.472136 
C 1.186024 4.472136 2.323632 4.000923 3.162278 3.162278 
C 4.000923 2.323632 4.472136 1.186024 4.472136 0 
C 4.472136 -1.186024 4.000923 -2.323632 3.162278 -3.162278 
C 2.323632 -4.000923 1.186024 -4.472136 0 -4.472136 
C -1.186024 -4.472136 -2.323632 -4.000923 -3.162278 -3.162278 
C -4.000923 -2.323632 -4.472136 -1.186024 -4.472136 0 
C -4.472136 1.186024 -4.000923 2.323632 -3.162278 3.162278 
C -2.323632 4.000923 -1.186024 4.472136 0 4.472136 
z
" id="m935522d53c" style="stroke:#ffffff;"/>
    </defs>
    <g clip-path="url(#pa29b568c88)">
     <use style="fill:#0071c6;stroke:#ffffff;" x="137.720773" xlink:href="#m935522d53c" y="297.659521"/>
    </g>
   </g>
   <g id="PathCollection_16">
    <defs>
     <path d="M 0 4.472136 
C 1.186024 4.472136 2.323632 4.000923 3.162278 3.162278 
C 4.000923 2.323632 4.472136 1.186024 4.472136 0 
C 4.472136 -1.186024 4.000923 -2.323632 3.162278 -3.162278 
C 2.323632 -4.000923 1.186024 -4.472136 0 -4.472136 
C -1.186024 -4.472136 -2.323632 -4.000923 -3.162278 -3.162278 
C -4.000923 -2.323632 -4.472136 -1.186024 -4.472136 0 
C -4.472136 1.186024 -4.000923 2.323632 -3.162278 3.162278 
C -2.323632 4.000923 -1.186024 4.472136 0 4.472136 
z
" id="m5c192a0574" style="stroke:#ffffff;"/>
    </defs>
    <g clip-path="url(#pa29b568c88)">
     <use style="fill:#0076c4;stroke:#ffffff;" x="166.712884" xlink:href="#m5c192a0574" y="187.045216"/>
     <use style="fill:#0076c4;stroke:#ffffff;" x="275.023037" xlink:href="#m5c192a0574" y="298.650288"/>
    </g>
   </g>
   <g id="PathCollection_17">
    <defs>
     <path d="M 0 4.472136 
C 1.186024 4.472136 2.323632 4.000923 3.162278 3.162278 
C 4.000923 2.323632 4.472136 1.186024 4.472136 0 
C 4.472136 -1.186024 4.000923 -2.323632 3.162278 -3.162278 
C 2.323632 -4.000923 1.186024 -4.472136 0 -4.472136 
C -1.186024 -4.472136 -2.323632 -4.000923 -3.162278 -3.162278 
C -4.000923 -2.323632 -4.472136 -1.186024 -4.472136 0 
C -4.472136 1.186024 -4.000923 2.323632 -3.162278 3.162278 
C -2.323632 4.000923 -1.186024 4.472136 0 4.472136 
z
" id="m8da73eaf3e" style="stroke:#ffffff;"/>
    </defs>
    <g clip-path="url(#pa29b568c88)">
     <use style="fill:#007cc1;stroke:#ffffff;" x="172.730115" xlink:href="#m8da73eaf3e" y="273.593479"/>
     <use style="fill:#007cc1;stroke:#ffffff;" x="270.373358" xlink:href="#m8da73eaf3e" y="299.928696"/>
     <use style="fill:#007cc1;stroke:#ffffff;" x="471.403565" xlink:href="#m8da73eaf3e" y="302.613354"/>
    </g>
   </g>
   <g id="PathCollection_18">
    <defs>
     <path d="M 0 4.472136 
C 1.186024 4.472136 2.323632 4.000923 3.162278 3.162278 
C 4.000923 2.323632 4.472136 1.186024 4.472136 0 
C 4.472136 -1.186024 4.000923 -2.323632 3.162278 -3.162278 
C 2.323632 -4.000923 1.186024 -4.472136 0 -4.472136 
C -1.186024 -4.472136 -2.323632 -4.000923 -3.162278 -3.162278 
C -4.000923 -2.323632 -4.472136 -1.186024 -4.472136 0 
C -4.472136 1.186024 -4.000923 2.323632 -3.162278 3.162278 
C -2.323632 4.000923 -1.186024 4.472136 0 4.472136 
z
" id="m21a4e64dff" style="stroke:#ffffff;"/>
    </defs>
    <g clip-path="url(#pa29b568c88)">
     <use style="fill:#0081bf;stroke:#ffffff;" x="172.730115" xlink:href="#m21a4e64dff" y="229.680143"/>
     <use style="fill:#0081bf;stroke:#ffffff;" x="270.373358" xlink:href="#m21a4e64dff" y="291.075717"/>
    </g>
   </g>
   <g id="PathCollection_19">
    <defs>
     <path d="M 0 4.472136 
C 1.186024 4.472136 2.323632 4.000923 3.162278 3.162278 
C 4.000923 2.323632 4.472136 1.186024 4.472136 0 
C 4.472136 -1.186024 4.000923 -2.323632 3.162278 -3.162278 
C 2.323632 -4.000923 1.186024 -4.472136 0 -4.472136 
C -1.186024 -4.472136 -2.323632 -4.000923 -3.162278 -3.162278 
C -4.000923 -2.323632 -4.472136 -1.186024 -4.472136 0 
C -4.472136 1.186024 -4.000923 2.323632 -3.162278 3.162278 
C -2.323632 4.000923 -1.186024 4.472136 0 4.472136 
z
" id="m58fac1168c" style="stroke:#ffffff;"/>
    </defs>
    <g clip-path="url(#pa29b568c88)">
     <use style="fill:#0083bd;stroke:#ffffff;" x="182.302982" xlink:href="#m58fac1168c" y="290.308671"/>
    </g>
   </g>
   <g id="PathCollection_20">
    <defs>
     <path d="M 0 4.472136 
C 1.186024 4.472136 2.323632 4.000923 3.162278 3.162278 
C 4.000923 2.323632 4.472136 1.186024 4.472136 0 
C 4.472136 -1.186024 4.000923 -2.323632 3.162278 -3.162278 
C 2.323632 -4.000923 1.186024 -4.472136 0 -4.472136 
C -1.186024 -4.472136 -2.323632 -4.000923 -3.162278 -3.162278 
C -4.000923 -2.323632 -4.472136 -1.186024 -4.472136 0 
C -4.472136 1.186024 -4.000923 2.323632 -3.162278 3.162278 
C -2.323632 4.000923 -1.186024 4.472136 0 4.472136 
z
" id="m8ea401e424" style="stroke:#ffffff;"/>
    </defs>
    <g clip-path="url(#pa29b568c88)">
     <use style="fill:#0089bb;stroke:#ffffff;" x="183.397024" xlink:href="#m8ea401e424" y="248.185108"/>
     <use style="fill:#0089bb;stroke:#ffffff;" x="191.328828" xlink:href="#m8ea401e424" y="291.459239"/>
     <use style="fill:#0089bb;stroke:#ffffff;" x="199.807653" xlink:href="#m8ea401e424" y="316.388207"/>
     <use style="fill:#0089bb;stroke:#ffffff;" x="219.773918" xlink:href="#m8ea401e424" y="297.691481"/>
     <use style="fill:#0089bb;stroke:#ffffff;" x="237.825611" xlink:href="#m8ea401e424" y="193.181577"/>
     <use style="fill:#0089bb;stroke:#ffffff;" x="250.954114" xlink:href="#m8ea401e424" y="232.23696"/>
     <use style="fill:#0089bb;stroke:#ffffff;" x="269.005806" xlink:href="#m8ea401e424" y="283.756827"/>
     <use style="fill:#0089bb;stroke:#ffffff;" x="280.493246" xlink:href="#m8ea401e424" y="280.464925"/>
     <use style="fill:#0089bb;stroke:#ffffff;" x="305.656211" xlink:href="#m8ea401e424" y="310.986931"/>
     <use style="fill:#0089bb;stroke:#ffffff;" x="317.143651" xlink:href="#m8ea401e424" y="305.106251"/>
    </g>
   </g>
   <g id="PathCollection_21">
    <defs>
     <path d="M 0 4.472136 
C 1.186024 4.472136 2.323632 4.000923 3.162278 3.162278 
C 4.000923 2.323632 4.472136 1.186024 4.472136 0 
C 4.472136 -1.186024 4.000923 -2.323632 3.162278 -3.162278 
C 2.323632 -4.000923 1.186024 -4.472136 0 -4.472136 
C -1.186024 -4.472136 -2.323632 -4.000923 -3.162278 -3.162278 
C -4.000923 -2.323632 -4.472136 -1.186024 -4.472136 0 
C -4.472136 1.186024 -4.000923 2.323632 -3.162278 3.162278 
C -2.323632 4.000923 -1.186024 4.472136 0 4.472136 
z
" id="m5d56bfb626" style="stroke:#ffffff;"/>
    </defs>
    <g clip-path="url(#pa29b568c88)">
     <use style="fill:#008eb8;stroke:#ffffff;" x="215.944772" xlink:href="#m5d56bfb626" y="288.998303"/>
    </g>
   </g>
   <g id="PathCollection_22">
    <defs>
     <path d="M 0 4.472136 
C 1.186024 4.472136 2.323632 4.000923 3.162278 3.162278 
C 4.000923 2.323632 4.472136 1.186024 4.472136 0 
C 4.472136 -1.186024 4.000923 -2.323632 3.162278 -3.162278 
C 2.323632 -4.000923 1.186024 -4.472136 0 -4.472136 
C -1.186024 -4.472136 -2.323632 -4.000923 -3.162278 -3.162278 
C -4.000923 -2.323632 -4.472136 -1.186024 -4.472136 0 
C -4.472136 1.186024 -4.000923 2.323632 -3.162278 3.162278 
C -2.323632 4.000923 -1.186024 4.472136 0 4.472136 
z
" id="m2b968e228d" style="stroke:#ffffff;"/>
    </defs>
    <g clip-path="url(#pa29b568c88)">
     <use style="fill:#0093b6;stroke:#ffffff;" x="221.414981" xlink:href="#m2b968e228d" y="301.590627"/>
    </g>
   </g>
   <g id="PathCollection_23">
    <defs>
     <path d="M 0 4.472136 
C 1.186024 4.472136 2.323632 4.000923 3.162278 3.162278 
C 4.000923 2.323632 4.472136 1.186024 4.472136 0 
C 4.472136 -1.186024 4.000923 -2.323632 3.162278 -3.162278 
C 2.323632 -4.000923 1.186024 -4.472136 0 -4.472136 
C -1.186024 -4.472136 -2.323632 -4.000923 -3.162278 -3.162278 
C -4.000923 -2.323632 -4.472136 -1.186024 -4.472136 0 
C -4.472136 1.186024 -4.000923 2.323632 -3.162278 3.162278 
C -2.323632 4.000923 -1.186024 4.472136 0 4.472136 
z
" id="m0ed2623e4d" style="stroke:#ffffff;"/>
    </defs>
    <g clip-path="url(#pa29b568c88)">
     <use style="fill:#0098b3;stroke:#ffffff;" x="227.158702" xlink:href="#m0ed2623e4d" y="281.967055"/>
     <use style="fill:#0098b3;stroke:#ffffff;" x="233.449443" xlink:href="#m0ed2623e4d" y="260.106268"/>
     <use style="fill:#0098b3;stroke:#ffffff;" x="240.013694" xlink:href="#m0ed2623e4d" y="275.638933"/>
     <use style="fill:#0098b3;stroke:#ffffff;" x="249.586561" xlink:href="#m0ed2623e4d" y="292.258245"/>
     <use style="fill:#0098b3;stroke:#ffffff;" x="259.159428" xlink:href="#m0ed2623e4d" y="287.400292"/>
     <use style="fill:#0098b3;stroke:#ffffff;" x="267.911764" xlink:href="#m0ed2623e4d" y="299.609094"/>
     <use style="fill:#0098b3;stroke:#ffffff;" x="275.570058" xlink:href="#m0ed2623e4d" y="306.736222"/>
     <use style="fill:#0098b3;stroke:#ffffff;" x="282.134309" xlink:href="#m0ed2623e4d" y="310.315766"/>
     <use style="fill:#0098b3;stroke:#ffffff;" x="292.801218" xlink:href="#m0ed2623e4d" y="308.877556"/>
     <use style="fill:#0098b3;stroke:#ffffff;" x="300.459512" xlink:href="#m0ed2623e4d" y="298.810089"/>
     <use style="fill:#0098b3;stroke:#ffffff;" x="309.758868" xlink:href="#m0ed2623e4d" y="295.038783"/>
     <use style="fill:#0098b3;stroke:#ffffff;" x="317.417162" xlink:href="#m0ed2623e4d" y="290.08495"/>
    </g>
   </g>
   <g id="PathCollection_24">
    <defs>
     <path d="M 0 4.472136 
C 1.186024 4.472136 2.323632 4.000923 3.162278 3.162278 
C 4.000923 2.323632 4.472136 1.186024 4.472136 0 
C 4.472136 -1.186024 4.000923 -2.323632 3.162278 -3.162278 
C 2.323632 -4.000923 1.186024 -4.472136 0 -4.472136 
C -1.186024 -4.472136 -2.323632 -4.000923 -3.162278 -3.162278 
C -4.000923 -2.323632 -4.472136 -1.186024 -4.472136 0 
C -4.472136 1.186024 -4.000923 2.323632 -3.162278 3.162278 
C -2.323632 4.000923 -1.186024 4.472136 0 4.472136 
z
" id="m3d55922b80" style="stroke:#ffffff;"/>
    </defs>
    <g clip-path="url(#pa29b568c88)">
     <use style="fill:#009bb2;stroke:#ffffff;" x="232.355401" xlink:href="#m3d55922b80" y="228.689377"/>
    </g>
   </g>
   <g id="PathCollection_25">
    <defs>
     <path d="M 0 4.472136 
C 1.186024 4.472136 2.323632 4.000923 3.162278 3.162278 
C 4.000923 2.323632 4.472136 1.186024 4.472136 0 
C 4.472136 -1.186024 4.000923 -2.323632 3.162278 -3.162278 
C 2.323632 -4.000923 1.186024 -4.472136 0 -4.472136 
C -1.186024 -4.472136 -2.323632 -4.000923 -3.162278 -3.162278 
C -4.000923 -2.323632 -4.472136 -1.186024 -4.472136 0 
C -4.472136 1.186024 -4.000923 2.323632 -3.162278 3.162278 
C -2.323632 4.000923 -1.186024 4.472136 0 4.472136 
z
" id="m5e36334960" style="stroke:#ffffff;"/>
    </defs>
    <g clip-path="url(#pa29b568c88)">
     <use style="fill:#00a0af;stroke:#ffffff;" x="233.996464" xlink:href="#m5e36334960" y="275.319331"/>
     <use style="fill:#00a0af;stroke:#ffffff;" x="243.29582" xlink:href="#m5e36334960" y="297.755402"/>
     <use style="fill:#00a0af;stroke:#ffffff;" x="250.680603" xlink:href="#m5e36334960" y="299.481253"/>
     <use style="fill:#00a0af;stroke:#ffffff;" x="260.25347" xlink:href="#m5e36334960" y="306.800142"/>
     <use style="fill:#00a0af;stroke:#ffffff;" x="268.458785" xlink:href="#m5e36334960" y="300.919463"/>
     <use style="fill:#00a0af;stroke:#ffffff;" x="276.117079" xlink:href="#m5e36334960" y="316.452127"/>
     <use style="fill:#00a0af;stroke:#ffffff;" x="285.142925" xlink:href="#m5e36334960" y="302.773155"/>
     <use style="fill:#00a0af;stroke:#ffffff;" x="290.066113" xlink:href="#m5e36334960" y="310.986931"/>
     <use style="fill:#00a0af;stroke:#ffffff;" x="299.36547" xlink:href="#m5e36334960" y="308.685795"/>
     <use style="fill:#00a0af;stroke:#ffffff;" x="307.844295" xlink:href="#m5e36334960" y="317.315053"/>
     <use style="fill:#00a0af;stroke:#ffffff;" x="315.229078" xlink:href="#m5e36334960" y="217.37546"/>
    </g>
   </g>
   <g id="PathCollection_26">
    <defs>
     <path d="M 0 4.472136 
C 1.186024 4.472136 2.323632 4.000923 3.162278 3.162278 
C 4.000923 2.323632 4.472136 1.186024 4.472136 0 
C 4.472136 -1.186024 4.000923 -2.323632 3.162278 -3.162278 
C 2.323632 -4.000923 1.186024 -4.472136 0 -4.472136 
C -1.186024 -4.472136 -2.323632 -4.000923 -3.162278 -3.162278 
C -4.000923 -2.323632 -4.472136 -1.186024 -4.472136 0 
C -4.472136 1.186024 -4.000923 2.323632 -3.162278 3.162278 
C -2.323632 4.000923 -1.186024 4.472136 0 4.472136 
z
" id="md11dd3144e" style="stroke:#ffffff;"/>
    </defs>
    <g clip-path="url(#pa29b568c88)">
     <use style="fill:#00a5ad;stroke:#ffffff;" x="246.851457" xlink:href="#md11dd3144e" y="317.826417"/>
     <use style="fill:#00a5ad;stroke:#ffffff;" x="254.23624" xlink:href="#md11dd3144e" y="315.525281"/>
     <use style="fill:#00a5ad;stroke:#ffffff;" x="264.082617" xlink:href="#md11dd3144e" y="317.219173"/>
     <use style="fill:#00a5ad;stroke:#ffffff;" x="271.740911" xlink:href="#md11dd3144e" y="316.995451"/>
     <use style="fill:#00a5ad;stroke:#ffffff;" x="282.134309" xlink:href="#md11dd3144e" y="316.388207"/>
     <use style="fill:#00a5ad;stroke:#ffffff;" x="290.066113" xlink:href="#md11dd3144e" y="318.657382"/>
     <use style="fill:#00a5ad;stroke:#ffffff;" x="299.36547" xlink:href="#md11dd3144e" y="318.849144"/>
     <use style="fill:#00a5ad;stroke:#ffffff;" x="307.844295" xlink:href="#md11dd3144e" y="319.264626"/>
     <use style="fill:#00a5ad;stroke:#ffffff;" x="315.229078" xlink:href="#md11dd3144e" y="306.959944"/>
    </g>
   </g>
   <g id="PathCollection_27">
    <defs>
     <path d="M 0 4.472136 
C 1.186024 4.472136 2.323632 4.000923 3.162278 3.162278 
C 4.000923 2.323632 4.472136 1.186024 4.472136 0 
C 4.472136 -1.186024 4.000923 -2.323632 3.162278 -3.162278 
C 2.323632 -4.000923 1.186024 -4.472136 0 -4.472136 
C -1.186024 -4.472136 -2.323632 -4.000923 -3.162278 -3.162278 
C -4.000923 -2.323632 -4.472136 -1.186024 -4.472136 0 
C -4.472136 1.186024 -4.000923 2.323632 -3.162278 3.162278 
C -2.323632 4.000923 -1.186024 4.472136 0 4.472136 
z
" id="mb2aa99e22a" style="stroke:#ffffff;"/>
    </defs>
    <g clip-path="url(#pa29b568c88)">
     <use style="fill:#00aaaa;stroke:#ffffff;" x="319.331735" xlink:href="#mb2aa99e22a" y="273.433678"/>
    </g>
   </g>
   <g id="PathCollection_28">
    <defs>
     <path d="M 0 4.472136 
C 1.186024 4.472136 2.323632 4.000923 3.162278 3.162278 
C 4.000923 2.323632 4.472136 1.186024 4.472136 0 
C 4.472136 -1.186024 4.000923 -2.323632 3.162278 -3.162278 
C 2.323632 -4.000923 1.186024 -4.472136 0 -4.472136 
C -1.186024 -4.472136 -2.323632 -4.000923 -3.162278 -3.162278 
C -4.000923 -2.323632 -4.472136 -1.186024 -4.472136 0 
C -4.472136 1.186024 -4.000923 2.323632 -3.162278 3.162278 
C -2.323632 4.000923 -1.186024 4.472136 0 4.472136 
z
" id="m821f068bf9" style="stroke:#ffffff;"/>
    </defs>
    <g clip-path="url(#pa29b568c88)">
     <use style="fill:#00ada9;stroke:#ffffff;" x="328.084071" xlink:href="#m821f068bf9" y="314.981958"/>
     <use style="fill:#00ada9;stroke:#ffffff;" x="346.682784" xlink:href="#m821f068bf9" y="304.307246"/>
    </g>
   </g>
   <g id="PathCollection_29">
    <defs>
     <path d="M 0 4.472136 
C 1.186024 4.472136 2.323632 4.000923 3.162278 3.162278 
C 4.000923 2.323632 4.472136 1.186024 4.472136 0 
C 4.472136 -1.186024 4.000923 -2.323632 3.162278 -3.162278 
C 2.323632 -4.000923 1.186024 -4.472136 0 -4.472136 
C -1.186024 -4.472136 -2.323632 -4.000923 -3.162278 -3.162278 
C -4.000923 -2.323632 -4.472136 -1.186024 -4.472136 0 
C -4.472136 1.186024 -4.000923 2.323632 -3.162278 3.162278 
C -2.323632 4.000923 -1.186024 4.472136 0 4.472136 
z
" id="m95fc67ce4a" style="stroke:#ffffff;"/>
    </defs>
    <g clip-path="url(#pa29b568c88)">
     <use style="fill:#00b2a6;stroke:#ffffff;" x="373.213301" xlink:href="#m95fc67ce4a" y="73.170969"/>
    </g>
   </g>
   <g id="PathCollection_30">
    <defs>
     <path d="M 0 4.472136 
C 1.186024 4.472136 2.323632 4.000923 3.162278 3.162278 
C 4.000923 2.323632 4.472136 1.186024 4.472136 0 
C 4.472136 -1.186024 4.000923 -2.323632 3.162278 -3.162278 
C 2.323632 -4.000923 1.186024 -4.472136 0 -4.472136 
C -1.186024 -4.472136 -2.323632 -4.000923 -3.162278 -3.162278 
C -4.000923 -2.323632 -4.472136 -1.186024 -4.472136 0 
C -4.472136 1.186024 -4.000923 2.323632 -3.162278 3.162278 
C -2.323632 4.000923 -1.186024 4.472136 0 4.472136 
z
" id="m66b9fd23ee" style="stroke:#ffffff;"/>
    </defs>
    <g clip-path="url(#pa29b568c88)">
     <use style="fill:#00b7a4;stroke:#ffffff;" x="378.957021" xlink:href="#m66b9fd23ee" y="293.408812"/>
    </g>
   </g>
   <g id="PathCollection_31">
    <defs>
     <path d="M 0 4.472136 
C 1.186024 4.472136 2.323632 4.000923 3.162278 3.162278 
C 4.000923 2.323632 4.472136 1.186024 4.472136 0 
C 4.472136 -1.186024 4.000923 -2.323632 3.162278 -3.162278 
C 2.323632 -4.000923 1.186024 -4.472136 0 -4.472136 
C -1.186024 -4.472136 -2.323632 -4.000923 -3.162278 -3.162278 
C -4.000923 -2.323632 -4.472136 -1.186024 -4.472136 0 
C -4.472136 1.186024 -4.000923 2.323632 -3.162278 3.162278 
C -2.323632 4.000923 -1.186024 4.472136 0 4.472136 
z
" id="mccd7dab6fe" style="stroke:#ffffff;"/>
    </defs>
    <g clip-path="url(#pa29b568c88)">
     <use style="fill:#00bca1;stroke:#ffffff;" x="398.376266" xlink:href="#mccd7dab6fe" y="290.14887"/>
    </g>
   </g>
   <g id="PathCollection_32">
    <defs>
     <path d="M 0 4.472136 
C 1.186024 4.472136 2.323632 4.000923 3.162278 3.162278 
C 4.000923 2.323632 4.472136 1.186024 4.472136 0 
C 4.472136 -1.186024 4.000923 -2.323632 3.162278 -3.162278 
C 2.323632 -4.000923 1.186024 -4.472136 0 -4.472136 
C -1.186024 -4.472136 -2.323632 -4.000923 -3.162278 -3.162278 
C -4.000923 -2.323632 -4.472136 -1.186024 -4.472136 0 
C -4.472136 1.186024 -4.000923 2.323632 -3.162278 3.162278 
C -2.323632 4.000923 -1.186024 4.472136 0 4.472136 
z
" id="me38f23acd3" style="stroke:#ffffff;"/>
    </defs>
    <g clip-path="url(#pa29b568c88)">
     <use style="fill:#00c19e;stroke:#ffffff;" x="475.232712" xlink:href="#me38f23acd3" y="288.423019"/>
    </g>
   </g>
   <g id="matplotlib.axis_1">
    <g id="xtick_1">
     <g id="line2d_1">
      <path clip-path="url(#pa29b568c88)" d="M 94.506116 334.8 
L 94.506116 57.6 
" style="fill:none;stroke:#b0b0b0;stroke-linecap:square;stroke-width:0.8;"/>
     </g>
     <g id="line2d_2">
      <defs>
       <path d="M 0 0 
L 0 3.5 
" id="m1f1d56933c" style="stroke:#000000;stroke-width:0.8;"/>
      </defs>
      <g>
       <use style="stroke:#000000;stroke-width:0.8;" x="94.506116" xlink:href="#m1f1d56933c" y="334.8"/>
      </g>
     </g>
     <g id="text_1">
      <!-- 2016 -->
      <defs>
       <path d="M 19.1875 8.296875 
L 53.609375 8.296875 
L 53.609375 0 
L 7.328125 0 
L 7.328125 8.296875 
Q 12.9375 14.109375 22.625 23.890625 
Q 32.328125 33.6875 34.8125 36.53125 
Q 39.546875 41.84375 41.421875 45.53125 
Q 43.3125 49.21875 43.3125 52.78125 
Q 43.3125 58.59375 39.234375 62.25 
Q 35.15625 65.921875 28.609375 65.921875 
Q 23.96875 65.921875 18.8125 64.3125 
Q 13.671875 62.703125 7.8125 59.421875 
L 7.8125 69.390625 
Q 13.765625 71.78125 18.9375 73 
Q 24.125 74.21875 28.421875 74.21875 
Q 39.75 74.21875 46.484375 68.546875 
Q 53.21875 62.890625 53.21875 53.421875 
Q 53.21875 48.921875 51.53125 44.890625 
Q 49.859375 40.875 45.40625 35.40625 
Q 44.1875 33.984375 37.640625 27.21875 
Q 31.109375 20.453125 19.1875 8.296875 
z
" id="DejaVuSans-50"/>
       <path d="M 31.78125 66.40625 
Q 24.171875 66.40625 20.328125 58.90625 
Q 16.5 51.421875 16.5 36.375 
Q 16.5 21.390625 20.328125 13.890625 
Q 24.171875 6.390625 31.78125 6.390625 
Q 39.453125 6.390625 43.28125 13.890625 
Q 47.125 21.390625 47.125 36.375 
Q 47.125 51.421875 43.28125 58.90625 
Q 39.453125 66.40625 31.78125 66.40625 
z
M 31.78125 74.21875 
Q 44.046875 74.21875 50.515625 64.515625 
Q 56.984375 54.828125 56.984375 36.375 
Q 56.984375 17.96875 50.515625 8.265625 
Q 44.046875 -1.421875 31.78125 -1.421875 
Q 19.53125 -1.421875 13.0625 8.265625 
Q 6.59375 17.96875 6.59375 36.375 
Q 6.59375 54.828125 13.0625 64.515625 
Q 19.53125 74.21875 31.78125 74.21875 
z
" id="DejaVuSans-48"/>
       <path d="M 12.40625 8.296875 
L 28.515625 8.296875 
L 28.515625 63.921875 
L 10.984375 60.40625 
L 10.984375 69.390625 
L 28.421875 72.90625 
L 38.28125 72.90625 
L 38.28125 8.296875 
L 54.390625 8.296875 
L 54.390625 0 
L 12.40625 0 
z
" id="DejaVuSans-49"/>
       <path d="M 33.015625 40.375 
Q 26.375 40.375 22.484375 35.828125 
Q 18.609375 31.296875 18.609375 23.390625 
Q 18.609375 15.53125 22.484375 10.953125 
Q 26.375 6.390625 33.015625 6.390625 
Q 39.65625 6.390625 43.53125 10.953125 
Q 47.40625 15.53125 47.40625 23.390625 
Q 47.40625 31.296875 43.53125 35.828125 
Q 39.65625 40.375 33.015625 40.375 
z
M 52.59375 71.296875 
L 52.59375 62.3125 
Q 48.875 64.0625 45.09375 64.984375 
Q 41.3125 65.921875 37.59375 65.921875 
Q 27.828125 65.921875 22.671875 59.328125 
Q 17.53125 52.734375 16.796875 39.40625 
Q 19.671875 43.65625 24.015625 45.921875 
Q 28.375 48.1875 33.59375 48.1875 
Q 44.578125 48.1875 50.953125 41.515625 
Q 57.328125 34.859375 57.328125 23.390625 
Q 57.328125 12.15625 50.6875 5.359375 
Q 44.046875 -1.421875 33.015625 -1.421875 
Q 20.359375 -1.421875 13.671875 8.265625 
Q 6.984375 17.96875 6.984375 36.375 
Q 6.984375 53.65625 15.1875 63.9375 
Q 23.390625 74.21875 37.203125 74.21875 
Q 40.921875 74.21875 44.703125 73.484375 
Q 48.484375 72.75 52.59375 71.296875 
z
" id="DejaVuSans-54"/>
      </defs>
      <g transform="translate(81.781116 349.398437)scale(0.1 -0.1)">
       <use xlink:href="#DejaVuSans-50"/>
       <use x="63.623047" xlink:href="#DejaVuSans-48"/>
       <use x="127.246094" xlink:href="#DejaVuSans-49"/>
       <use x="190.869141" xlink:href="#DejaVuSans-54"/>
      </g>
     </g>
    </g>
    <g id="xtick_2">
     <g id="line2d_3">
      <path clip-path="url(#pa29b568c88)" d="M 194.610954 334.8 
L 194.610954 57.6 
" style="fill:none;stroke:#b0b0b0;stroke-linecap:square;stroke-width:0.8;"/>
     </g>
     <g id="line2d_4">
      <g>
       <use style="stroke:#000000;stroke-width:0.8;" x="194.610954" xlink:href="#m1f1d56933c" y="334.8"/>
      </g>
     </g>
     <g id="text_2">
      <!-- 2017 -->
      <defs>
       <path d="M 8.203125 72.90625 
L 55.078125 72.90625 
L 55.078125 68.703125 
L 28.609375 0 
L 18.3125 0 
L 43.21875 64.59375 
L 8.203125 64.59375 
z
" id="DejaVuSans-55"/>
      </defs>
      <g transform="translate(181.885954 349.398437)scale(0.1 -0.1)">
       <use xlink:href="#DejaVuSans-50"/>
       <use x="63.623047" xlink:href="#DejaVuSans-48"/>
       <use x="127.246094" xlink:href="#DejaVuSans-49"/>
       <use x="190.869141" xlink:href="#DejaVuSans-55"/>
      </g>
     </g>
    </g>
    <g id="xtick_3">
     <g id="line2d_5">
      <path clip-path="url(#pa29b568c88)" d="M 294.442281 334.8 
L 294.442281 57.6 
" style="fill:none;stroke:#b0b0b0;stroke-linecap:square;stroke-width:0.8;"/>
     </g>
     <g id="line2d_6">
      <g>
       <use style="stroke:#000000;stroke-width:0.8;" x="294.442281" xlink:href="#m1f1d56933c" y="334.8"/>
      </g>
     </g>
     <g id="text_3">
      <!-- 2018 -->
      <defs>
       <path d="M 31.78125 34.625 
Q 24.75 34.625 20.71875 30.859375 
Q 16.703125 27.09375 16.703125 20.515625 
Q 16.703125 13.921875 20.71875 10.15625 
Q 24.75 6.390625 31.78125 6.390625 
Q 38.8125 6.390625 42.859375 10.171875 
Q 46.921875 13.96875 46.921875 20.515625 
Q 46.921875 27.09375 42.890625 30.859375 
Q 38.875 34.625 31.78125 34.625 
z
M 21.921875 38.8125 
Q 15.578125 40.375 12.03125 44.71875 
Q 8.5 49.078125 8.5 55.328125 
Q 8.5 64.0625 14.71875 69.140625 
Q 20.953125 74.21875 31.78125 74.21875 
Q 42.671875 74.21875 48.875 69.140625 
Q 55.078125 64.0625 55.078125 55.328125 
Q 55.078125 49.078125 51.53125 44.71875 
Q 48 40.375 41.703125 38.8125 
Q 48.828125 37.15625 52.796875 32.3125 
Q 56.78125 27.484375 56.78125 20.515625 
Q 56.78125 9.90625 50.3125 4.234375 
Q 43.84375 -1.421875 31.78125 -1.421875 
Q 19.734375 -1.421875 13.25 4.234375 
Q 6.78125 9.90625 6.78125 20.515625 
Q 6.78125 27.484375 10.78125 32.3125 
Q 14.796875 37.15625 21.921875 38.8125 
z
M 18.3125 54.390625 
Q 18.3125 48.734375 21.84375 45.5625 
Q 25.390625 42.390625 31.78125 42.390625 
Q 38.140625 42.390625 41.71875 45.5625 
Q 45.3125 48.734375 45.3125 54.390625 
Q 45.3125 60.0625 41.71875 63.234375 
Q 38.140625 66.40625 31.78125 66.40625 
Q 25.390625 66.40625 21.84375 63.234375 
Q 18.3125 60.0625 18.3125 54.390625 
z
" id="DejaVuSans-56"/>
      </defs>
      <g transform="translate(281.717281 349.398437)scale(0.1 -0.1)">
       <use xlink:href="#DejaVuSans-50"/>
       <use x="63.623047" xlink:href="#DejaVuSans-48"/>
       <use x="127.246094" xlink:href="#DejaVuSans-49"/>
       <use x="190.869141" xlink:href="#DejaVuSans-56"/>
      </g>
     </g>
    </g>
    <g id="xtick_4">
     <g id="line2d_7">
      <path clip-path="url(#pa29b568c88)" d="M 394.273608 334.8 
L 394.273608 57.6 
" style="fill:none;stroke:#b0b0b0;stroke-linecap:square;stroke-width:0.8;"/>
     </g>
     <g id="line2d_8">
      <g>
       <use style="stroke:#000000;stroke-width:0.8;" x="394.273608" xlink:href="#m1f1d56933c" y="334.8"/>
      </g>
     </g>
     <g id="text_4">
      <!-- 2019 -->
      <defs>
       <path d="M 10.984375 1.515625 
L 10.984375 10.5 
Q 14.703125 8.734375 18.5 7.8125 
Q 22.3125 6.890625 25.984375 6.890625 
Q 35.75 6.890625 40.890625 13.453125 
Q 46.046875 20.015625 46.78125 33.40625 
Q 43.953125 29.203125 39.59375 26.953125 
Q 35.25 24.703125 29.984375 24.703125 
Q 19.046875 24.703125 12.671875 31.3125 
Q 6.296875 37.9375 6.296875 49.421875 
Q 6.296875 60.640625 12.9375 67.421875 
Q 19.578125 74.21875 30.609375 74.21875 
Q 43.265625 74.21875 49.921875 64.515625 
Q 56.59375 54.828125 56.59375 36.375 
Q 56.59375 19.140625 48.40625 8.859375 
Q 40.234375 -1.421875 26.421875 -1.421875 
Q 22.703125 -1.421875 18.890625 -0.6875 
Q 15.09375 0.046875 10.984375 1.515625 
z
M 30.609375 32.421875 
Q 37.25 32.421875 41.125 36.953125 
Q 45.015625 41.5 45.015625 49.421875 
Q 45.015625 57.28125 41.125 61.84375 
Q 37.25 66.40625 30.609375 66.40625 
Q 23.96875 66.40625 20.09375 61.84375 
Q 16.21875 57.28125 16.21875 49.421875 
Q 16.21875 41.5 20.09375 36.953125 
Q 23.96875 32.421875 30.609375 32.421875 
z
" id="DejaVuSans-57"/>
      </defs>
      <g transform="translate(381.548608 349.398437)scale(0.1 -0.1)">
       <use xlink:href="#DejaVuSans-50"/>
       <use x="63.623047" xlink:href="#DejaVuSans-48"/>
       <use x="127.246094" xlink:href="#DejaVuSans-49"/>
       <use x="190.869141" xlink:href="#DejaVuSans-57"/>
      </g>
     </g>
    </g>
    <g id="xtick_5">
     <g id="line2d_9">
      <path clip-path="url(#pa29b568c88)" d="M 494.104936 334.8 
L 494.104936 57.6 
" style="fill:none;stroke:#b0b0b0;stroke-linecap:square;stroke-width:0.8;"/>
     </g>
     <g id="line2d_10">
      <g>
       <use style="stroke:#000000;stroke-width:0.8;" x="494.104936" xlink:href="#m1f1d56933c" y="334.8"/>
      </g>
     </g>
     <g id="text_5">
      <!-- 2020 -->
      <g transform="translate(481.379936 349.398437)scale(0.1 -0.1)">
       <use xlink:href="#DejaVuSans-50"/>
       <use x="63.623047" xlink:href="#DejaVuSans-48"/>
       <use x="127.246094" xlink:href="#DejaVuSans-50"/>
       <use x="190.869141" xlink:href="#DejaVuSans-48"/>
      </g>
     </g>
    </g>
    <g id="xtick_6">
     <g id="line2d_11">
      <defs>
       <path d="M 0 0 
L 0 2 
" id="m06081a5d83" style="stroke:#000000;stroke-width:0.6;"/>
      </defs>
      <g>
       <use style="stroke:#000000;stroke-width:0.6;" x="61.137837" xlink:href="#m06081a5d83" y="334.8"/>
      </g>
     </g>
    </g>
    <g id="xtick_7">
     <g id="line2d_12">
      <g>
       <use style="stroke:#000000;stroke-width:0.6;" x="69.343151" xlink:href="#m06081a5d83" y="334.8"/>
      </g>
     </g>
    </g>
    <g id="xtick_8">
     <g id="line2d_13">
      <g>
       <use style="stroke:#000000;stroke-width:0.6;" x="77.821976" xlink:href="#m06081a5d83" y="334.8"/>
      </g>
     </g>
    </g>
    <g id="xtick_9">
     <g id="line2d_14">
      <g>
       <use style="stroke:#000000;stroke-width:0.6;" x="86.027291" xlink:href="#m06081a5d83" y="334.8"/>
      </g>
     </g>
    </g>
    <g id="xtick_10">
     <g id="line2d_15">
      <g>
       <use style="stroke:#000000;stroke-width:0.6;" x="102.984941" xlink:href="#m06081a5d83" y="334.8"/>
      </g>
     </g>
    </g>
    <g id="xtick_11">
     <g id="line2d_16">
      <g>
       <use style="stroke:#000000;stroke-width:0.6;" x="110.916745" xlink:href="#m06081a5d83" y="334.8"/>
      </g>
     </g>
    </g>
    <g id="xtick_12">
     <g id="line2d_17">
      <g>
       <use style="stroke:#000000;stroke-width:0.6;" x="119.39557" xlink:href="#m06081a5d83" y="334.8"/>
      </g>
     </g>
    </g>
    <g id="xtick_13">
     <g id="line2d_18">
      <g>
       <use style="stroke:#000000;stroke-width:0.6;" x="127.600885" xlink:href="#m06081a5d83" y="334.8"/>
      </g>
     </g>
    </g>
    <g id="xtick_14">
     <g id="line2d_19">
      <g>
       <use style="stroke:#000000;stroke-width:0.6;" x="136.07971" xlink:href="#m06081a5d83" y="334.8"/>
      </g>
     </g>
    </g>
    <g id="xtick_15">
     <g id="line2d_20">
      <g>
       <use style="stroke:#000000;stroke-width:0.6;" x="144.285024" xlink:href="#m06081a5d83" y="334.8"/>
      </g>
     </g>
    </g>
    <g id="xtick_16">
     <g id="line2d_21">
      <g>
       <use style="stroke:#000000;stroke-width:0.6;" x="152.763849" xlink:href="#m06081a5d83" y="334.8"/>
      </g>
     </g>
    </g>
    <g id="xtick_17">
     <g id="line2d_22">
      <g>
       <use style="stroke:#000000;stroke-width:0.6;" x="161.242675" xlink:href="#m06081a5d83" y="334.8"/>
      </g>
     </g>
    </g>
    <g id="xtick_18">
     <g id="line2d_23">
      <g>
       <use style="stroke:#000000;stroke-width:0.6;" x="169.447989" xlink:href="#m06081a5d83" y="334.8"/>
      </g>
     </g>
    </g>
    <g id="xtick_19">
     <g id="line2d_24">
      <g>
       <use style="stroke:#000000;stroke-width:0.6;" x="177.926814" xlink:href="#m06081a5d83" y="334.8"/>
      </g>
     </g>
    </g>
    <g id="xtick_20">
     <g id="line2d_25">
      <g>
       <use style="stroke:#000000;stroke-width:0.6;" x="186.132129" xlink:href="#m06081a5d83" y="334.8"/>
      </g>
     </g>
    </g>
    <g id="xtick_21">
     <g id="line2d_26">
      <g>
       <use style="stroke:#000000;stroke-width:0.6;" x="203.089779" xlink:href="#m06081a5d83" y="334.8"/>
      </g>
     </g>
    </g>
    <g id="xtick_22">
     <g id="line2d_27">
      <g>
       <use style="stroke:#000000;stroke-width:0.6;" x="210.748072" xlink:href="#m06081a5d83" y="334.8"/>
      </g>
     </g>
    </g>
    <g id="xtick_23">
     <g id="line2d_28">
      <g>
       <use style="stroke:#000000;stroke-width:0.6;" x="219.226897" xlink:href="#m06081a5d83" y="334.8"/>
      </g>
     </g>
    </g>
    <g id="xtick_24">
     <g id="line2d_29">
      <g>
       <use style="stroke:#000000;stroke-width:0.6;" x="227.432212" xlink:href="#m06081a5d83" y="334.8"/>
      </g>
     </g>
    </g>
    <g id="xtick_25">
     <g id="line2d_30">
      <g>
       <use style="stroke:#000000;stroke-width:0.6;" x="235.911037" xlink:href="#m06081a5d83" y="334.8"/>
      </g>
     </g>
    </g>
    <g id="xtick_26">
     <g id="line2d_31">
      <g>
       <use style="stroke:#000000;stroke-width:0.6;" x="244.116352" xlink:href="#m06081a5d83" y="334.8"/>
      </g>
     </g>
    </g>
    <g id="xtick_27">
     <g id="line2d_32">
      <g>
       <use style="stroke:#000000;stroke-width:0.6;" x="252.595177" xlink:href="#m06081a5d83" y="334.8"/>
      </g>
     </g>
    </g>
    <g id="xtick_28">
     <g id="line2d_33">
      <g>
       <use style="stroke:#000000;stroke-width:0.6;" x="261.074002" xlink:href="#m06081a5d83" y="334.8"/>
      </g>
     </g>
    </g>
    <g id="xtick_29">
     <g id="line2d_34">
      <g>
       <use style="stroke:#000000;stroke-width:0.6;" x="269.279316" xlink:href="#m06081a5d83" y="334.8"/>
      </g>
     </g>
    </g>
    <g id="xtick_30">
     <g id="line2d_35">
      <g>
       <use style="stroke:#000000;stroke-width:0.6;" x="277.758141" xlink:href="#m06081a5d83" y="334.8"/>
      </g>
     </g>
    </g>
    <g id="xtick_31">
     <g id="line2d_36">
      <g>
       <use style="stroke:#000000;stroke-width:0.6;" x="285.963456" xlink:href="#m06081a5d83" y="334.8"/>
      </g>
     </g>
    </g>
    <g id="xtick_32">
     <g id="line2d_37">
      <g>
       <use style="stroke:#000000;stroke-width:0.6;" x="302.921106" xlink:href="#m06081a5d83" y="334.8"/>
      </g>
     </g>
    </g>
    <g id="xtick_33">
     <g id="line2d_38">
      <g>
       <use style="stroke:#000000;stroke-width:0.6;" x="310.5794" xlink:href="#m06081a5d83" y="334.8"/>
      </g>
     </g>
    </g>
    <g id="xtick_34">
     <g id="line2d_39">
      <g>
       <use style="stroke:#000000;stroke-width:0.6;" x="319.058225" xlink:href="#m06081a5d83" y="334.8"/>
      </g>
     </g>
    </g>
    <g id="xtick_35">
     <g id="line2d_40">
      <g>
       <use style="stroke:#000000;stroke-width:0.6;" x="327.263539" xlink:href="#m06081a5d83" y="334.8"/>
      </g>
     </g>
    </g>
    <g id="xtick_36">
     <g id="line2d_41">
      <g>
       <use style="stroke:#000000;stroke-width:0.6;" x="335.742364" xlink:href="#m06081a5d83" y="334.8"/>
      </g>
     </g>
    </g>
    <g id="xtick_37">
     <g id="line2d_42">
      <g>
       <use style="stroke:#000000;stroke-width:0.6;" x="343.947679" xlink:href="#m06081a5d83" y="334.8"/>
      </g>
     </g>
    </g>
    <g id="xtick_38">
     <g id="line2d_43">
      <g>
       <use style="stroke:#000000;stroke-width:0.6;" x="352.426504" xlink:href="#m06081a5d83" y="334.8"/>
      </g>
     </g>
    </g>
    <g id="xtick_39">
     <g id="line2d_44">
      <g>
       <use style="stroke:#000000;stroke-width:0.6;" x="360.905329" xlink:href="#m06081a5d83" y="334.8"/>
      </g>
     </g>
    </g>
    <g id="xtick_40">
     <g id="line2d_45">
      <g>
       <use style="stroke:#000000;stroke-width:0.6;" x="369.110644" xlink:href="#m06081a5d83" y="334.8"/>
      </g>
     </g>
    </g>
    <g id="xtick_41">
     <g id="line2d_46">
      <g>
       <use style="stroke:#000000;stroke-width:0.6;" x="377.589469" xlink:href="#m06081a5d83" y="334.8"/>
      </g>
     </g>
    </g>
    <g id="xtick_42">
     <g id="line2d_47">
      <g>
       <use style="stroke:#000000;stroke-width:0.6;" x="385.794783" xlink:href="#m06081a5d83" y="334.8"/>
      </g>
     </g>
    </g>
    <g id="xtick_43">
     <g id="line2d_48">
      <g>
       <use style="stroke:#000000;stroke-width:0.6;" x="402.752433" xlink:href="#m06081a5d83" y="334.8"/>
      </g>
     </g>
    </g>
    <g id="xtick_44">
     <g id="line2d_49">
      <g>
       <use style="stroke:#000000;stroke-width:0.6;" x="410.410727" xlink:href="#m06081a5d83" y="334.8"/>
      </g>
     </g>
    </g>
    <g id="xtick_45">
     <g id="line2d_50">
      <g>
       <use style="stroke:#000000;stroke-width:0.6;" x="418.889552" xlink:href="#m06081a5d83" y="334.8"/>
      </g>
     </g>
    </g>
    <g id="xtick_46">
     <g id="line2d_51">
      <g>
       <use style="stroke:#000000;stroke-width:0.6;" x="427.094867" xlink:href="#m06081a5d83" y="334.8"/>
      </g>
     </g>
    </g>
    <g id="xtick_47">
     <g id="line2d_52">
      <g>
       <use style="stroke:#000000;stroke-width:0.6;" x="435.573692" xlink:href="#m06081a5d83" y="334.8"/>
      </g>
     </g>
    </g>
    <g id="xtick_48">
     <g id="line2d_53">
      <g>
       <use style="stroke:#000000;stroke-width:0.6;" x="443.779006" xlink:href="#m06081a5d83" y="334.8"/>
      </g>
     </g>
    </g>
    <g id="xtick_49">
     <g id="line2d_54">
      <g>
       <use style="stroke:#000000;stroke-width:0.6;" x="452.257831" xlink:href="#m06081a5d83" y="334.8"/>
      </g>
     </g>
    </g>
    <g id="xtick_50">
     <g id="line2d_55">
      <g>
       <use style="stroke:#000000;stroke-width:0.6;" x="460.736656" xlink:href="#m06081a5d83" y="334.8"/>
      </g>
     </g>
    </g>
    <g id="xtick_51">
     <g id="line2d_56">
      <g>
       <use style="stroke:#000000;stroke-width:0.6;" x="468.941971" xlink:href="#m06081a5d83" y="334.8"/>
      </g>
     </g>
    </g>
    <g id="xtick_52">
     <g id="line2d_57">
      <g>
       <use style="stroke:#000000;stroke-width:0.6;" x="477.420796" xlink:href="#m06081a5d83" y="334.8"/>
      </g>
     </g>
    </g>
    <g id="xtick_53">
     <g id="line2d_58">
      <g>
       <use style="stroke:#000000;stroke-width:0.6;" x="485.626111" xlink:href="#m06081a5d83" y="334.8"/>
      </g>
     </g>
    </g>
    <g id="text_6">
     <!-- The daily totals represent the minimum amount of trash for that day. -->
     <defs>
      <path d="M -0.296875 72.90625 
L 61.375 72.90625 
L 61.375 64.59375 
L 35.5 64.59375 
L 35.5 0 
L 25.59375 0 
L 25.59375 64.59375 
L -0.296875 64.59375 
z
" id="DejaVuSans-84"/>
      <path d="M 54.890625 33.015625 
L 54.890625 0 
L 45.90625 0 
L 45.90625 32.71875 
Q 45.90625 40.484375 42.875 44.328125 
Q 39.84375 48.1875 33.796875 48.1875 
Q 26.515625 48.1875 22.3125 43.546875 
Q 18.109375 38.921875 18.109375 30.90625 
L 18.109375 0 
L 9.078125 0 
L 9.078125 75.984375 
L 18.109375 75.984375 
L 18.109375 46.1875 
Q 21.34375 51.125 25.703125 53.5625 
Q 30.078125 56 35.796875 56 
Q 45.21875 56 50.046875 50.171875 
Q 54.890625 44.34375 54.890625 33.015625 
z
" id="DejaVuSans-104"/>
      <path d="M 56.203125 29.59375 
L 56.203125 25.203125 
L 14.890625 25.203125 
Q 15.484375 15.921875 20.484375 11.0625 
Q 25.484375 6.203125 34.421875 6.203125 
Q 39.59375 6.203125 44.453125 7.46875 
Q 49.3125 8.734375 54.109375 11.28125 
L 54.109375 2.78125 
Q 49.265625 0.734375 44.1875 -0.34375 
Q 39.109375 -1.421875 33.890625 -1.421875 
Q 20.796875 -1.421875 13.15625 6.1875 
Q 5.515625 13.8125 5.515625 26.8125 
Q 5.515625 40.234375 12.765625 48.109375 
Q 20.015625 56 32.328125 56 
Q 43.359375 56 49.78125 48.890625 
Q 56.203125 41.796875 56.203125 29.59375 
z
M 47.21875 32.234375 
Q 47.125 39.59375 43.09375 43.984375 
Q 39.0625 48.390625 32.421875 48.390625 
Q 24.90625 48.390625 20.390625 44.140625 
Q 15.875 39.890625 15.1875 32.171875 
z
" id="DejaVuSans-101"/>
      <path id="DejaVuSans-32"/>
      <path d="M 45.40625 46.390625 
L 45.40625 75.984375 
L 54.390625 75.984375 
L 54.390625 0 
L 45.40625 0 
L 45.40625 8.203125 
Q 42.578125 3.328125 38.25 0.953125 
Q 33.9375 -1.421875 27.875 -1.421875 
Q 17.96875 -1.421875 11.734375 6.484375 
Q 5.515625 14.40625 5.515625 27.296875 
Q 5.515625 40.1875 11.734375 48.09375 
Q 17.96875 56 27.875 56 
Q 33.9375 56 38.25 53.625 
Q 42.578125 51.265625 45.40625 46.390625 
z
M 14.796875 27.296875 
Q 14.796875 17.390625 18.875 11.75 
Q 22.953125 6.109375 30.078125 6.109375 
Q 37.203125 6.109375 41.296875 11.75 
Q 45.40625 17.390625 45.40625 27.296875 
Q 45.40625 37.203125 41.296875 42.84375 
Q 37.203125 48.484375 30.078125 48.484375 
Q 22.953125 48.484375 18.875 42.84375 
Q 14.796875 37.203125 14.796875 27.296875 
z
" id="DejaVuSans-100"/>
      <path d="M 34.28125 27.484375 
Q 23.390625 27.484375 19.1875 25 
Q 14.984375 22.515625 14.984375 16.5 
Q 14.984375 11.71875 18.140625 8.90625 
Q 21.296875 6.109375 26.703125 6.109375 
Q 34.1875 6.109375 38.703125 11.40625 
Q 43.21875 16.703125 43.21875 25.484375 
L 43.21875 27.484375 
z
M 52.203125 31.203125 
L 52.203125 0 
L 43.21875 0 
L 43.21875 8.296875 
Q 40.140625 3.328125 35.546875 0.953125 
Q 30.953125 -1.421875 24.3125 -1.421875 
Q 15.921875 -1.421875 10.953125 3.296875 
Q 6 8.015625 6 15.921875 
Q 6 25.140625 12.171875 29.828125 
Q 18.359375 34.515625 30.609375 34.515625 
L 43.21875 34.515625 
L 43.21875 35.40625 
Q 43.21875 41.609375 39.140625 45 
Q 35.0625 48.390625 27.6875 48.390625 
Q 23 48.390625 18.546875 47.265625 
Q 14.109375 46.140625 10.015625 43.890625 
L 10.015625 52.203125 
Q 14.9375 54.109375 19.578125 55.046875 
Q 24.21875 56 28.609375 56 
Q 40.484375 56 46.34375 49.84375 
Q 52.203125 43.703125 52.203125 31.203125 
z
" id="DejaVuSans-97"/>
      <path d="M 9.421875 54.6875 
L 18.40625 54.6875 
L 18.40625 0 
L 9.421875 0 
z
M 9.421875 75.984375 
L 18.40625 75.984375 
L 18.40625 64.59375 
L 9.421875 64.59375 
z
" id="DejaVuSans-105"/>
      <path d="M 9.421875 75.984375 
L 18.40625 75.984375 
L 18.40625 0 
L 9.421875 0 
z
" id="DejaVuSans-108"/>
      <path d="M 32.171875 -5.078125 
Q 28.375 -14.84375 24.75 -17.8125 
Q 21.140625 -20.796875 15.09375 -20.796875 
L 7.90625 -20.796875 
L 7.90625 -13.28125 
L 13.1875 -13.28125 
Q 16.890625 -13.28125 18.9375 -11.515625 
Q 21 -9.765625 23.484375 -3.21875 
L 25.09375 0.875 
L 2.984375 54.6875 
L 12.5 54.6875 
L 29.59375 11.921875 
L 46.6875 54.6875 
L 56.203125 54.6875 
z
" id="DejaVuSans-121"/>
      <path d="M 18.3125 70.21875 
L 18.3125 54.6875 
L 36.8125 54.6875 
L 36.8125 47.703125 
L 18.3125 47.703125 
L 18.3125 18.015625 
Q 18.3125 11.328125 20.140625 9.421875 
Q 21.96875 7.515625 27.59375 7.515625 
L 36.8125 7.515625 
L 36.8125 0 
L 27.59375 0 
Q 17.1875 0 13.234375 3.875 
Q 9.28125 7.765625 9.28125 18.015625 
L 9.28125 47.703125 
L 2.6875 47.703125 
L 2.6875 54.6875 
L 9.28125 54.6875 
L 9.28125 70.21875 
z
" id="DejaVuSans-116"/>
      <path d="M 30.609375 48.390625 
Q 23.390625 48.390625 19.1875 42.75 
Q 14.984375 37.109375 14.984375 27.296875 
Q 14.984375 17.484375 19.15625 11.84375 
Q 23.34375 6.203125 30.609375 6.203125 
Q 37.796875 6.203125 41.984375 11.859375 
Q 46.1875 17.53125 46.1875 27.296875 
Q 46.1875 37.015625 41.984375 42.703125 
Q 37.796875 48.390625 30.609375 48.390625 
z
M 30.609375 56 
Q 42.328125 56 49.015625 48.375 
Q 55.71875 40.765625 55.71875 27.296875 
Q 55.71875 13.875 49.015625 6.21875 
Q 42.328125 -1.421875 30.609375 -1.421875 
Q 18.84375 -1.421875 12.171875 6.21875 
Q 5.515625 13.875 5.515625 27.296875 
Q 5.515625 40.765625 12.171875 48.375 
Q 18.84375 56 30.609375 56 
z
" id="DejaVuSans-111"/>
      <path d="M 44.28125 53.078125 
L 44.28125 44.578125 
Q 40.484375 46.53125 36.375 47.5 
Q 32.28125 48.484375 27.875 48.484375 
Q 21.1875 48.484375 17.84375 46.4375 
Q 14.5 44.390625 14.5 40.28125 
Q 14.5 37.15625 16.890625 35.375 
Q 19.28125 33.59375 26.515625 31.984375 
L 29.59375 31.296875 
Q 39.15625 29.25 43.1875 25.515625 
Q 47.21875 21.78125 47.21875 15.09375 
Q 47.21875 7.46875 41.1875 3.015625 
Q 35.15625 -1.421875 24.609375 -1.421875 
Q 20.21875 -1.421875 15.453125 -0.5625 
Q 10.6875 0.296875 5.421875 2 
L 5.421875 11.28125 
Q 10.40625 8.6875 15.234375 7.390625 
Q 20.0625 6.109375 24.8125 6.109375 
Q 31.15625 6.109375 34.5625 8.28125 
Q 37.984375 10.453125 37.984375 14.40625 
Q 37.984375 18.0625 35.515625 20.015625 
Q 33.0625 21.96875 24.703125 23.78125 
L 21.578125 24.515625 
Q 13.234375 26.265625 9.515625 29.90625 
Q 5.8125 33.546875 5.8125 39.890625 
Q 5.8125 47.609375 11.28125 51.796875 
Q 16.75 56 26.8125 56 
Q 31.78125 56 36.171875 55.265625 
Q 40.578125 54.546875 44.28125 53.078125 
z
" id="DejaVuSans-115"/>
      <path d="M 41.109375 46.296875 
Q 39.59375 47.171875 37.8125 47.578125 
Q 36.03125 48 33.890625 48 
Q 26.265625 48 22.1875 43.046875 
Q 18.109375 38.09375 18.109375 28.8125 
L 18.109375 0 
L 9.078125 0 
L 9.078125 54.6875 
L 18.109375 54.6875 
L 18.109375 46.1875 
Q 20.953125 51.171875 25.484375 53.578125 
Q 30.03125 56 36.53125 56 
Q 37.453125 56 38.578125 55.875 
Q 39.703125 55.765625 41.0625 55.515625 
z
" id="DejaVuSans-114"/>
      <path d="M 18.109375 8.203125 
L 18.109375 -20.796875 
L 9.078125 -20.796875 
L 9.078125 54.6875 
L 18.109375 54.6875 
L 18.109375 46.390625 
Q 20.953125 51.265625 25.265625 53.625 
Q 29.59375 56 35.59375 56 
Q 45.5625 56 51.78125 48.09375 
Q 58.015625 40.1875 58.015625 27.296875 
Q 58.015625 14.40625 51.78125 6.484375 
Q 45.5625 -1.421875 35.59375 -1.421875 
Q 29.59375 -1.421875 25.265625 0.953125 
Q 20.953125 3.328125 18.109375 8.203125 
z
M 48.6875 27.296875 
Q 48.6875 37.203125 44.609375 42.84375 
Q 40.53125 48.484375 33.40625 48.484375 
Q 26.265625 48.484375 22.1875 42.84375 
Q 18.109375 37.203125 18.109375 27.296875 
Q 18.109375 17.390625 22.1875 11.75 
Q 26.265625 6.109375 33.40625 6.109375 
Q 40.53125 6.109375 44.609375 11.75 
Q 48.6875 17.390625 48.6875 27.296875 
z
" id="DejaVuSans-112"/>
      <path d="M 54.890625 33.015625 
L 54.890625 0 
L 45.90625 0 
L 45.90625 32.71875 
Q 45.90625 40.484375 42.875 44.328125 
Q 39.84375 48.1875 33.796875 48.1875 
Q 26.515625 48.1875 22.3125 43.546875 
Q 18.109375 38.921875 18.109375 30.90625 
L 18.109375 0 
L 9.078125 0 
L 9.078125 54.6875 
L 18.109375 54.6875 
L 18.109375 46.1875 
Q 21.34375 51.125 25.703125 53.5625 
Q 30.078125 56 35.796875 56 
Q 45.21875 56 50.046875 50.171875 
Q 54.890625 44.34375 54.890625 33.015625 
z
" id="DejaVuSans-110"/>
      <path d="M 52 44.1875 
Q 55.375 50.25 60.0625 53.125 
Q 64.75 56 71.09375 56 
Q 79.640625 56 84.28125 50.015625 
Q 88.921875 44.046875 88.921875 33.015625 
L 88.921875 0 
L 79.890625 0 
L 79.890625 32.71875 
Q 79.890625 40.578125 77.09375 44.375 
Q 74.3125 48.1875 68.609375 48.1875 
Q 61.625 48.1875 57.5625 43.546875 
Q 53.515625 38.921875 53.515625 30.90625 
L 53.515625 0 
L 44.484375 0 
L 44.484375 32.71875 
Q 44.484375 40.625 41.703125 44.40625 
Q 38.921875 48.1875 33.109375 48.1875 
Q 26.21875 48.1875 22.15625 43.53125 
Q 18.109375 38.875 18.109375 30.90625 
L 18.109375 0 
L 9.078125 0 
L 9.078125 54.6875 
L 18.109375 54.6875 
L 18.109375 46.1875 
Q 21.1875 51.21875 25.484375 53.609375 
Q 29.78125 56 35.6875 56 
Q 41.65625 56 45.828125 52.96875 
Q 50 49.953125 52 44.1875 
z
" id="DejaVuSans-109"/>
      <path d="M 8.5 21.578125 
L 8.5 54.6875 
L 17.484375 54.6875 
L 17.484375 21.921875 
Q 17.484375 14.15625 20.5 10.265625 
Q 23.53125 6.390625 29.59375 6.390625 
Q 36.859375 6.390625 41.078125 11.03125 
Q 45.3125 15.671875 45.3125 23.6875 
L 45.3125 54.6875 
L 54.296875 54.6875 
L 54.296875 0 
L 45.3125 0 
L 45.3125 8.40625 
Q 42.046875 3.421875 37.71875 1 
Q 33.40625 -1.421875 27.6875 -1.421875 
Q 18.265625 -1.421875 13.375 4.4375 
Q 8.5 10.296875 8.5 21.578125 
z
M 31.109375 56 
z
" id="DejaVuSans-117"/>
      <path d="M 37.109375 75.984375 
L 37.109375 68.5 
L 28.515625 68.5 
Q 23.6875 68.5 21.796875 66.546875 
Q 19.921875 64.59375 19.921875 59.515625 
L 19.921875 54.6875 
L 34.71875 54.6875 
L 34.71875 47.703125 
L 19.921875 47.703125 
L 19.921875 0 
L 10.890625 0 
L 10.890625 47.703125 
L 2.296875 47.703125 
L 2.296875 54.6875 
L 10.890625 54.6875 
L 10.890625 58.5 
Q 10.890625 67.625 15.140625 71.796875 
Q 19.390625 75.984375 28.609375 75.984375 
z
" id="DejaVuSans-102"/>
      <path d="M 10.6875 12.40625 
L 21 12.40625 
L 21 0 
L 10.6875 0 
z
" id="DejaVuSans-46"/>
     </defs>
     <g transform="translate(53.53875 375.59625)scale(0.12 -0.12)">
      <use xlink:href="#DejaVuSans-84"/>
      <use x="61.083984" xlink:href="#DejaVuSans-104"/>
      <use x="124.462891" xlink:href="#DejaVuSans-101"/>
      <use x="185.986328" xlink:href="#DejaVuSans-32"/>
      <use x="217.773438" xlink:href="#DejaVuSans-100"/>
      <use x="281.25" xlink:href="#DejaVuSans-97"/>
      <use x="342.529297" xlink:href="#DejaVuSans-105"/>
      <use x="370.3125" xlink:href="#DejaVuSans-108"/>
      <use x="398.095703" xlink:href="#DejaVuSans-121"/>
      <use x="457.275391" xlink:href="#DejaVuSans-32"/>
      <use x="489.0625" xlink:href="#DejaVuSans-116"/>
      <use x="528.271484" xlink:href="#DejaVuSans-111"/>
      <use x="589.453125" xlink:href="#DejaVuSans-116"/>
      <use x="628.662109" xlink:href="#DejaVuSans-97"/>
      <use x="689.941406" xlink:href="#DejaVuSans-108"/>
      <use x="717.724609" xlink:href="#DejaVuSans-115"/>
      <use x="769.824219" xlink:href="#DejaVuSans-32"/>
      <use x="801.611328" xlink:href="#DejaVuSans-114"/>
      <use x="842.693359" xlink:href="#DejaVuSans-101"/>
      <use x="904.216797" xlink:href="#DejaVuSans-112"/>
      <use x="967.693359" xlink:href="#DejaVuSans-114"/>
      <use x="1008.775391" xlink:href="#DejaVuSans-101"/>
      <use x="1070.298828" xlink:href="#DejaVuSans-115"/>
      <use x="1122.398438" xlink:href="#DejaVuSans-101"/>
      <use x="1183.921875" xlink:href="#DejaVuSans-110"/>
      <use x="1247.300781" xlink:href="#DejaVuSans-116"/>
      <use x="1286.509766" xlink:href="#DejaVuSans-32"/>
      <use x="1318.296875" xlink:href="#DejaVuSans-116"/>
      <use x="1357.505859" xlink:href="#DejaVuSans-104"/>
      <use x="1420.884766" xlink:href="#DejaVuSans-101"/>
      <use x="1482.408203" xlink:href="#DejaVuSans-32"/>
      <use x="1514.195312" xlink:href="#DejaVuSans-109"/>
      <use x="1611.607422" xlink:href="#DejaVuSans-105"/>
      <use x="1639.390625" xlink:href="#DejaVuSans-110"/>
      <use x="1702.769531" xlink:href="#DejaVuSans-105"/>
      <use x="1730.552734" xlink:href="#DejaVuSans-109"/>
      <use x="1827.964844" xlink:href="#DejaVuSans-117"/>
      <use x="1891.34375" xlink:href="#DejaVuSans-109"/>
      <use x="1988.755859" xlink:href="#DejaVuSans-32"/>
      <use x="2020.542969" xlink:href="#DejaVuSans-97"/>
      <use x="2081.822266" xlink:href="#DejaVuSans-109"/>
      <use x="2179.234375" xlink:href="#DejaVuSans-111"/>
      <use x="2240.416016" xlink:href="#DejaVuSans-117"/>
      <use x="2303.794922" xlink:href="#DejaVuSans-110"/>
      <use x="2367.173828" xlink:href="#DejaVuSans-116"/>
      <use x="2406.382812" xlink:href="#DejaVuSans-32"/>
      <use x="2438.169922" xlink:href="#DejaVuSans-111"/>
      <use x="2499.351562" xlink:href="#DejaVuSans-102"/>
      <use x="2534.556641" xlink:href="#DejaVuSans-32"/>
      <use x="2566.34375" xlink:href="#DejaVuSans-116"/>
      <use x="2605.552734" xlink:href="#DejaVuSans-114"/>
      <use x="2646.666016" xlink:href="#DejaVuSans-97"/>
      <use x="2707.945312" xlink:href="#DejaVuSans-115"/>
      <use x="2760.044922" xlink:href="#DejaVuSans-104"/>
      <use x="2823.423828" xlink:href="#DejaVuSans-32"/>
      <use x="2855.210938" xlink:href="#DejaVuSans-102"/>
      <use x="2890.416016" xlink:href="#DejaVuSans-111"/>
      <use x="2951.597656" xlink:href="#DejaVuSans-114"/>
      <use x="2992.710938" xlink:href="#DejaVuSans-32"/>
      <use x="3024.498047" xlink:href="#DejaVuSans-116"/>
      <use x="3063.707031" xlink:href="#DejaVuSans-104"/>
      <use x="3127.085938" xlink:href="#DejaVuSans-97"/>
      <use x="3188.365234" xlink:href="#DejaVuSans-116"/>
      <use x="3227.574219" xlink:href="#DejaVuSans-32"/>
      <use x="3259.361328" xlink:href="#DejaVuSans-100"/>
      <use x="3322.837891" xlink:href="#DejaVuSans-97"/>
      <use x="3384.117188" xlink:href="#DejaVuSans-121"/>
      <use x="3443.078125" xlink:href="#DejaVuSans-46"/>
     </g>
    </g>
   </g>
   <g id="matplotlib.axis_2">
    <g id="ytick_1">
     <g id="line2d_59">
      <path clip-path="url(#pa29b568c88)" d="M 53.53875 319.584229 
L 499.93875 319.584229 
" style="fill:none;stroke:#b0b0b0;stroke-linecap:square;stroke-width:0.8;"/>
     </g>
     <g id="line2d_60">
      <defs>
       <path d="M 0 0 
L -3.5 0 
" id="m7b7a1c0971" style="stroke:#000000;stroke-width:0.8;"/>
      </defs>
      <g>
       <use style="stroke:#000000;stroke-width:0.8;" x="53.53875" xlink:href="#m7b7a1c0971" y="319.584229"/>
      </g>
     </g>
     <g id="text_7">
      <!-- 0 -->
      <g transform="translate(40.17625 323.383447)scale(0.1 -0.1)">
       <use xlink:href="#DejaVuSans-48"/>
      </g>
     </g>
    </g>
    <g id="ytick_2">
     <g id="line2d_61">
      <path clip-path="url(#pa29b568c88)" d="M 53.53875 287.624013 
L 499.93875 287.624013 
" style="fill:none;stroke:#b0b0b0;stroke-linecap:square;stroke-width:0.8;"/>
     </g>
     <g id="line2d_62">
      <g>
       <use style="stroke:#000000;stroke-width:0.8;" x="53.53875" xlink:href="#m7b7a1c0971" y="287.624013"/>
      </g>
     </g>
     <g id="text_8">
      <!-- 10 -->
      <g transform="translate(33.81375 291.423232)scale(0.1 -0.1)">
       <use xlink:href="#DejaVuSans-49"/>
       <use x="63.623047" xlink:href="#DejaVuSans-48"/>
      </g>
     </g>
    </g>
    <g id="ytick_3">
     <g id="line2d_63">
      <path clip-path="url(#pa29b568c88)" d="M 53.53875 255.663798 
L 499.93875 255.663798 
" style="fill:none;stroke:#b0b0b0;stroke-linecap:square;stroke-width:0.8;"/>
     </g>
     <g id="line2d_64">
      <g>
       <use style="stroke:#000000;stroke-width:0.8;" x="53.53875" xlink:href="#m7b7a1c0971" y="255.663798"/>
      </g>
     </g>
     <g id="text_9">
      <!-- 20 -->
      <g transform="translate(33.81375 259.463017)scale(0.1 -0.1)">
       <use xlink:href="#DejaVuSans-50"/>
       <use x="63.623047" xlink:href="#DejaVuSans-48"/>
      </g>
     </g>
    </g>
    <g id="ytick_4">
     <g id="line2d_65">
      <path clip-path="url(#pa29b568c88)" d="M 53.53875 223.703583 
L 499.93875 223.703583 
" style="fill:none;stroke:#b0b0b0;stroke-linecap:square;stroke-width:0.8;"/>
     </g>
     <g id="line2d_66">
      <g>
       <use style="stroke:#000000;stroke-width:0.8;" x="53.53875" xlink:href="#m7b7a1c0971" y="223.703583"/>
      </g>
     </g>
     <g id="text_10">
      <!-- 30 -->
      <defs>
       <path d="M 40.578125 39.3125 
Q 47.65625 37.796875 51.625 33 
Q 55.609375 28.21875 55.609375 21.1875 
Q 55.609375 10.40625 48.1875 4.484375 
Q 40.765625 -1.421875 27.09375 -1.421875 
Q 22.515625 -1.421875 17.65625 -0.515625 
Q 12.796875 0.390625 7.625 2.203125 
L 7.625 11.71875 
Q 11.71875 9.328125 16.59375 8.109375 
Q 21.484375 6.890625 26.8125 6.890625 
Q 36.078125 6.890625 40.9375 10.546875 
Q 45.796875 14.203125 45.796875 21.1875 
Q 45.796875 27.640625 41.28125 31.265625 
Q 36.765625 34.90625 28.71875 34.90625 
L 20.21875 34.90625 
L 20.21875 43.015625 
L 29.109375 43.015625 
Q 36.375 43.015625 40.234375 45.921875 
Q 44.09375 48.828125 44.09375 54.296875 
Q 44.09375 59.90625 40.109375 62.90625 
Q 36.140625 65.921875 28.71875 65.921875 
Q 24.65625 65.921875 20.015625 65.03125 
Q 15.375 64.15625 9.8125 62.3125 
L 9.8125 71.09375 
Q 15.4375 72.65625 20.34375 73.4375 
Q 25.25 74.21875 29.59375 74.21875 
Q 40.828125 74.21875 47.359375 69.109375 
Q 53.90625 64.015625 53.90625 55.328125 
Q 53.90625 49.265625 50.4375 45.09375 
Q 46.96875 40.921875 40.578125 39.3125 
z
" id="DejaVuSans-51"/>
      </defs>
      <g transform="translate(33.81375 227.502802)scale(0.1 -0.1)">
       <use xlink:href="#DejaVuSans-51"/>
       <use x="63.623047" xlink:href="#DejaVuSans-48"/>
      </g>
     </g>
    </g>
    <g id="ytick_5">
     <g id="line2d_67">
      <path clip-path="url(#pa29b568c88)" d="M 53.53875 191.743368 
L 499.93875 191.743368 
" style="fill:none;stroke:#b0b0b0;stroke-linecap:square;stroke-width:0.8;"/>
     </g>
     <g id="line2d_68">
      <g>
       <use style="stroke:#000000;stroke-width:0.8;" x="53.53875" xlink:href="#m7b7a1c0971" y="191.743368"/>
      </g>
     </g>
     <g id="text_11">
      <!-- 40 -->
      <defs>
       <path d="M 37.796875 64.3125 
L 12.890625 25.390625 
L 37.796875 25.390625 
z
M 35.203125 72.90625 
L 47.609375 72.90625 
L 47.609375 25.390625 
L 58.015625 25.390625 
L 58.015625 17.1875 
L 47.609375 17.1875 
L 47.609375 0 
L 37.796875 0 
L 37.796875 17.1875 
L 4.890625 17.1875 
L 4.890625 26.703125 
z
" id="DejaVuSans-52"/>
      </defs>
      <g transform="translate(33.81375 195.542587)scale(0.1 -0.1)">
       <use xlink:href="#DejaVuSans-52"/>
       <use x="63.623047" xlink:href="#DejaVuSans-48"/>
      </g>
     </g>
    </g>
    <g id="ytick_6">
     <g id="line2d_69">
      <path clip-path="url(#pa29b568c88)" d="M 53.53875 159.783153 
L 499.93875 159.783153 
" style="fill:none;stroke:#b0b0b0;stroke-linecap:square;stroke-width:0.8;"/>
     </g>
     <g id="line2d_70">
      <g>
       <use style="stroke:#000000;stroke-width:0.8;" x="53.53875" xlink:href="#m7b7a1c0971" y="159.783153"/>
      </g>
     </g>
     <g id="text_12">
      <!-- 50 -->
      <defs>
       <path d="M 10.796875 72.90625 
L 49.515625 72.90625 
L 49.515625 64.59375 
L 19.828125 64.59375 
L 19.828125 46.734375 
Q 21.96875 47.46875 24.109375 47.828125 
Q 26.265625 48.1875 28.421875 48.1875 
Q 40.625 48.1875 47.75 41.5 
Q 54.890625 34.8125 54.890625 23.390625 
Q 54.890625 11.625 47.5625 5.09375 
Q 40.234375 -1.421875 26.90625 -1.421875 
Q 22.3125 -1.421875 17.546875 -0.640625 
Q 12.796875 0.140625 7.71875 1.703125 
L 7.71875 11.625 
Q 12.109375 9.234375 16.796875 8.0625 
Q 21.484375 6.890625 26.703125 6.890625 
Q 35.15625 6.890625 40.078125 11.328125 
Q 45.015625 15.765625 45.015625 23.390625 
Q 45.015625 31 40.078125 35.4375 
Q 35.15625 39.890625 26.703125 39.890625 
Q 22.75 39.890625 18.8125 39.015625 
Q 14.890625 38.140625 10.796875 36.28125 
z
" id="DejaVuSans-53"/>
      </defs>
      <g transform="translate(33.81375 163.582371)scale(0.1 -0.1)">
       <use xlink:href="#DejaVuSans-53"/>
       <use x="63.623047" xlink:href="#DejaVuSans-48"/>
      </g>
     </g>
    </g>
    <g id="ytick_7">
     <g id="line2d_71">
      <path clip-path="url(#pa29b568c88)" d="M 53.53875 127.822937 
L 499.93875 127.822937 
" style="fill:none;stroke:#b0b0b0;stroke-linecap:square;stroke-width:0.8;"/>
     </g>
     <g id="line2d_72">
      <g>
       <use style="stroke:#000000;stroke-width:0.8;" x="53.53875" xlink:href="#m7b7a1c0971" y="127.822937"/>
      </g>
     </g>
     <g id="text_13">
      <!-- 60 -->
      <g transform="translate(33.81375 131.622156)scale(0.1 -0.1)">
       <use xlink:href="#DejaVuSans-54"/>
       <use x="63.623047" xlink:href="#DejaVuSans-48"/>
      </g>
     </g>
    </g>
    <g id="ytick_8">
     <g id="line2d_73">
      <path clip-path="url(#pa29b568c88)" d="M 53.53875 95.862722 
L 499.93875 95.862722 
" style="fill:none;stroke:#b0b0b0;stroke-linecap:square;stroke-width:0.8;"/>
     </g>
     <g id="line2d_74">
      <g>
       <use style="stroke:#000000;stroke-width:0.8;" x="53.53875" xlink:href="#m7b7a1c0971" y="95.862722"/>
      </g>
     </g>
     <g id="text_14">
      <!-- 70 -->
      <g transform="translate(33.81375 99.661941)scale(0.1 -0.1)">
       <use xlink:href="#DejaVuSans-55"/>
       <use x="63.623047" xlink:href="#DejaVuSans-48"/>
      </g>
     </g>
    </g>
    <g id="ytick_9">
     <g id="line2d_75">
      <path clip-path="url(#pa29b568c88)" d="M 53.53875 63.902507 
L 499.93875 63.902507 
" style="fill:none;stroke:#b0b0b0;stroke-linecap:square;stroke-width:0.8;"/>
     </g>
     <g id="line2d_76">
      <g>
       <use style="stroke:#000000;stroke-width:0.8;" x="53.53875" xlink:href="#m7b7a1c0971" y="63.902507"/>
      </g>
     </g>
     <g id="text_15">
      <!-- 80 -->
      <g transform="translate(33.81375 67.701726)scale(0.1 -0.1)">
       <use xlink:href="#DejaVuSans-56"/>
       <use x="63.623047" xlink:href="#DejaVuSans-48"/>
      </g>
     </g>
    </g>
    <g id="text_16">
     <!-- Pieces of trash per meter of shoreline -->
     <defs>
      <path d="M 19.671875 64.796875 
L 19.671875 37.40625 
L 32.078125 37.40625 
Q 38.96875 37.40625 42.71875 40.96875 
Q 46.484375 44.53125 46.484375 51.125 
Q 46.484375 57.671875 42.71875 61.234375 
Q 38.96875 64.796875 32.078125 64.796875 
z
M 9.8125 72.90625 
L 32.078125 72.90625 
Q 44.34375 72.90625 50.609375 67.359375 
Q 56.890625 61.8125 56.890625 51.125 
Q 56.890625 40.328125 50.609375 34.8125 
Q 44.34375 29.296875 32.078125 29.296875 
L 19.671875 29.296875 
L 19.671875 0 
L 9.8125 0 
z
" id="DejaVuSans-80"/>
      <path d="M 48.78125 52.59375 
L 48.78125 44.1875 
Q 44.96875 46.296875 41.140625 47.34375 
Q 37.3125 48.390625 33.40625 48.390625 
Q 24.65625 48.390625 19.8125 42.84375 
Q 14.984375 37.3125 14.984375 27.296875 
Q 14.984375 17.28125 19.8125 11.734375 
Q 24.65625 6.203125 33.40625 6.203125 
Q 37.3125 6.203125 41.140625 7.25 
Q 44.96875 8.296875 48.78125 10.40625 
L 48.78125 2.09375 
Q 45.015625 0.34375 40.984375 -0.53125 
Q 36.96875 -1.421875 32.421875 -1.421875 
Q 20.0625 -1.421875 12.78125 6.34375 
Q 5.515625 14.109375 5.515625 27.296875 
Q 5.515625 40.671875 12.859375 48.328125 
Q 20.21875 56 33.015625 56 
Q 37.15625 56 41.109375 55.140625 
Q 45.0625 54.296875 48.78125 52.59375 
z
" id="DejaVuSans-99"/>
     </defs>
     <g transform="translate(16.318125 309.321562)rotate(-90)scale(0.12 -0.12)">
      <use xlink:href="#DejaVuSans-80"/>
      <use x="60.271484" xlink:href="#DejaVuSans-105"/>
      <use x="88.054688" xlink:href="#DejaVuSans-101"/>
      <use x="149.578125" xlink:href="#DejaVuSans-99"/>
      <use x="204.558594" xlink:href="#DejaVuSans-101"/>
      <use x="266.082031" xlink:href="#DejaVuSans-115"/>
      <use x="318.181641" xlink:href="#DejaVuSans-32"/>
      <use x="349.96875" xlink:href="#DejaVuSans-111"/>
      <use x="411.150391" xlink:href="#DejaVuSans-102"/>
      <use x="446.355469" xlink:href="#DejaVuSans-32"/>
      <use x="478.142578" xlink:href="#DejaVuSans-116"/>
      <use x="517.351562" xlink:href="#DejaVuSans-114"/>
      <use x="558.464844" xlink:href="#DejaVuSans-97"/>
      <use x="619.744141" xlink:href="#DejaVuSans-115"/>
      <use x="671.84375" xlink:href="#DejaVuSans-104"/>
      <use x="735.222656" xlink:href="#DejaVuSans-32"/>
      <use x="767.009766" xlink:href="#DejaVuSans-112"/>
      <use x="830.486328" xlink:href="#DejaVuSans-101"/>
      <use x="892.009766" xlink:href="#DejaVuSans-114"/>
      <use x="933.123047" xlink:href="#DejaVuSans-32"/>
      <use x="964.910156" xlink:href="#DejaVuSans-109"/>
      <use x="1062.322266" xlink:href="#DejaVuSans-101"/>
      <use x="1123.845703" xlink:href="#DejaVuSans-116"/>
      <use x="1163.054688" xlink:href="#DejaVuSans-101"/>
      <use x="1224.578125" xlink:href="#DejaVuSans-114"/>
      <use x="1265.691406" xlink:href="#DejaVuSans-32"/>
      <use x="1297.478516" xlink:href="#DejaVuSans-111"/>
      <use x="1358.660156" xlink:href="#DejaVuSans-102"/>
      <use x="1393.865234" xlink:href="#DejaVuSans-32"/>
      <use x="1425.652344" xlink:href="#DejaVuSans-115"/>
      <use x="1477.751953" xlink:href="#DejaVuSans-104"/>
      <use x="1541.130859" xlink:href="#DejaVuSans-111"/>
      <use x="1602.3125" xlink:href="#DejaVuSans-114"/>
      <use x="1643.394531" xlink:href="#DejaVuSans-101"/>
      <use x="1704.917969" xlink:href="#DejaVuSans-108"/>
      <use x="1732.701172" xlink:href="#DejaVuSans-105"/>
      <use x="1760.484375" xlink:href="#DejaVuSans-110"/>
      <use x="1823.863281" xlink:href="#DejaVuSans-101"/>
     </g>
    </g>
   </g>
   <g id="patch_3">
    <path d="M 53.53875 334.8 
L 53.53875 57.6 
" style="fill:none;stroke:#000000;stroke-linecap:square;stroke-linejoin:miter;stroke-width:0.8;"/>
   </g>
   <g id="patch_4">
    <path d="M 499.93875 334.8 
L 499.93875 57.6 
" style="fill:none;stroke:#000000;stroke-linecap:square;stroke-linejoin:miter;stroke-width:0.8;"/>
   </g>
   <g id="patch_5">
    <path d="M 53.53875 334.8 
L 499.93875 334.8 
" style="fill:none;stroke:#000000;stroke-linecap:square;stroke-linejoin:miter;stroke-width:0.8;"/>
   </g>
   <g id="patch_6">
    <path d="M 53.53875 57.6 
L 499.93875 57.6 
" style="fill:none;stroke:#000000;stroke-linecap:square;stroke-linejoin:miter;stroke-width:0.8;"/>
   </g>
   <g id="text_17">
    <!-- Total number of samples: 150, from 32 locations. -->
    <defs>
     <path d="M 48.6875 27.296875 
Q 48.6875 37.203125 44.609375 42.84375 
Q 40.53125 48.484375 33.40625 48.484375 
Q 26.265625 48.484375 22.1875 42.84375 
Q 18.109375 37.203125 18.109375 27.296875 
Q 18.109375 17.390625 22.1875 11.75 
Q 26.265625 6.109375 33.40625 6.109375 
Q 40.53125 6.109375 44.609375 11.75 
Q 48.6875 17.390625 48.6875 27.296875 
z
M 18.109375 46.390625 
Q 20.953125 51.265625 25.265625 53.625 
Q 29.59375 56 35.59375 56 
Q 45.5625 56 51.78125 48.09375 
Q 58.015625 40.1875 58.015625 27.296875 
Q 58.015625 14.40625 51.78125 6.484375 
Q 45.5625 -1.421875 35.59375 -1.421875 
Q 29.59375 -1.421875 25.265625 0.953125 
Q 20.953125 3.328125 18.109375 8.203125 
L 18.109375 0 
L 9.078125 0 
L 9.078125 75.984375 
L 18.109375 75.984375 
z
" id="DejaVuSans-98"/>
     <path d="M 11.71875 12.40625 
L 22.015625 12.40625 
L 22.015625 0 
L 11.71875 0 
z
M 11.71875 51.703125 
L 22.015625 51.703125 
L 22.015625 39.3125 
L 11.71875 39.3125 
z
" id="DejaVuSans-58"/>
     <path d="M 11.71875 12.40625 
L 22.015625 12.40625 
L 22.015625 4 
L 14.015625 -11.625 
L 7.71875 -11.625 
L 11.71875 4 
z
" id="DejaVuSans-44"/>
    </defs>
    <g transform="translate(53.53875 42.6)scale(0.14 -0.14)">
     <use xlink:href="#DejaVuSans-84"/>
     <use x="60.818359" xlink:href="#DejaVuSans-111"/>
     <use x="122" xlink:href="#DejaVuSans-116"/>
     <use x="161.208984" xlink:href="#DejaVuSans-97"/>
     <use x="222.488281" xlink:href="#DejaVuSans-108"/>
     <use x="250.271484" xlink:href="#DejaVuSans-32"/>
     <use x="282.058594" xlink:href="#DejaVuSans-110"/>
     <use x="345.4375" xlink:href="#DejaVuSans-117"/>
     <use x="408.816406" xlink:href="#DejaVuSans-109"/>
     <use x="506.228516" xlink:href="#DejaVuSans-98"/>
     <use x="569.705078" xlink:href="#DejaVuSans-101"/>
     <use x="631.228516" xlink:href="#DejaVuSans-114"/>
     <use x="672.341797" xlink:href="#DejaVuSans-32"/>
     <use x="704.128906" xlink:href="#DejaVuSans-111"/>
     <use x="765.310547" xlink:href="#DejaVuSans-102"/>
     <use x="800.515625" xlink:href="#DejaVuSans-32"/>
     <use x="832.302734" xlink:href="#DejaVuSans-115"/>
     <use x="884.402344" xlink:href="#DejaVuSans-97"/>
     <use x="945.681641" xlink:href="#DejaVuSans-109"/>
     <use x="1043.09375" xlink:href="#DejaVuSans-112"/>
     <use x="1106.570312" xlink:href="#DejaVuSans-108"/>
     <use x="1134.353516" xlink:href="#DejaVuSans-101"/>
     <use x="1195.876953" xlink:href="#DejaVuSans-115"/>
     <use x="1247.976562" xlink:href="#DejaVuSans-58"/>
     <use x="1281.667969" xlink:href="#DejaVuSans-32"/>
     <use x="1313.455078" xlink:href="#DejaVuSans-49"/>
     <use x="1377.078125" xlink:href="#DejaVuSans-53"/>
     <use x="1440.701172" xlink:href="#DejaVuSans-48"/>
     <use x="1504.324219" xlink:href="#DejaVuSans-44"/>
     <use x="1536.111328" xlink:href="#DejaVuSans-32"/>
     <use x="1567.898438" xlink:href="#DejaVuSans-102"/>
     <use x="1603.103516" xlink:href="#DejaVuSans-114"/>
     <use x="1644.185547" xlink:href="#DejaVuSans-111"/>
     <use x="1705.367188" xlink:href="#DejaVuSans-109"/>
     <use x="1802.779297" xlink:href="#DejaVuSans-32"/>
     <use x="1834.566406" xlink:href="#DejaVuSans-51"/>
     <use x="1898.189453" xlink:href="#DejaVuSans-50"/>
     <use x="1961.8125" xlink:href="#DejaVuSans-32"/>
     <use x="1993.599609" xlink:href="#DejaVuSans-108"/>
     <use x="2021.382812" xlink:href="#DejaVuSans-111"/>
     <use x="2082.564453" xlink:href="#DejaVuSans-99"/>
     <use x="2137.544922" xlink:href="#DejaVuSans-97"/>
     <use x="2198.824219" xlink:href="#DejaVuSans-116"/>
     <use x="2238.033203" xlink:href="#DejaVuSans-105"/>
     <use x="2265.816406" xlink:href="#DejaVuSans-111"/>
     <use x="2326.998047" xlink:href="#DejaVuSans-110"/>
     <use x="2390.376953" xlink:href="#DejaVuSans-115"/>
     <use x="2442.476562" xlink:href="#DejaVuSans-46"/>
    </g>
   </g>
  </g>
  <g id="text_18">
   <!-- Lac Lman, Nov-2015 - Dec-2019 -->
   <defs>
    <path d="M 9.8125 72.90625 
L 19.671875 72.90625 
L 19.671875 8.296875 
L 55.171875 8.296875 
L 55.171875 0 
L 9.8125 0 
z
" id="DejaVuSans-76"/>
    <path d="M 56.203125 29.59375 
L 56.203125 25.203125 
L 14.890625 25.203125 
Q 15.484375 15.921875 20.484375 11.0625 
Q 25.484375 6.203125 34.421875 6.203125 
Q 39.59375 6.203125 44.453125 7.46875 
Q 49.3125 8.734375 54.109375 11.28125 
L 54.109375 2.78125 
Q 49.265625 0.734375 44.1875 -0.34375 
Q 39.109375 -1.421875 33.890625 -1.421875 
Q 20.796875 -1.421875 13.15625 6.1875 
Q 5.515625 13.8125 5.515625 26.8125 
Q 5.515625 40.234375 12.765625 48.109375 
Q 20.015625 56 32.328125 56 
Q 43.359375 56 49.78125 48.890625 
Q 56.203125 41.796875 56.203125 29.59375 
z
M 47.21875 32.234375 
Q 47.125 39.59375 43.09375 43.984375 
Q 39.0625 48.390625 32.421875 48.390625 
Q 24.90625 48.390625 20.390625 44.140625 
Q 15.875 39.890625 15.1875 32.171875 
z
M 38.578125 79.984375 
L 48.296875 79.984375 
L 32.375 61.625 
L 24.90625 61.625 
z
" id="DejaVuSans-233"/>
    <path d="M 9.8125 72.90625 
L 23.09375 72.90625 
L 55.421875 11.921875 
L 55.421875 72.90625 
L 64.984375 72.90625 
L 64.984375 0 
L 51.703125 0 
L 19.390625 60.984375 
L 19.390625 0 
L 9.8125 0 
z
" id="DejaVuSans-78"/>
    <path d="M 2.984375 54.6875 
L 12.5 54.6875 
L 29.59375 8.796875 
L 46.6875 54.6875 
L 56.203125 54.6875 
L 35.6875 0 
L 23.484375 0 
z
" id="DejaVuSans-118"/>
    <path d="M 4.890625 31.390625 
L 31.203125 31.390625 
L 31.203125 23.390625 
L 4.890625 23.390625 
z
" id="DejaVuSans-45"/>
    <path d="M 19.671875 64.796875 
L 19.671875 8.109375 
L 31.59375 8.109375 
Q 46.6875 8.109375 53.6875 14.9375 
Q 60.6875 21.78125 60.6875 36.53125 
Q 60.6875 51.171875 53.6875 57.984375 
Q 46.6875 64.796875 31.59375 64.796875 
z
M 9.8125 72.90625 
L 30.078125 72.90625 
Q 51.265625 72.90625 61.171875 64.09375 
Q 71.09375 55.28125 71.09375 36.53125 
Q 71.09375 17.671875 61.125 8.828125 
Q 51.171875 0 30.078125 0 
L 9.8125 0 
z
" id="DejaVuSans-68"/>
   </defs>
   <g transform="translate(55.330313 20.877187)scale(0.18 -0.18)">
    <use xlink:href="#DejaVuSans-76"/>
    <use x="55.712891" xlink:href="#DejaVuSans-97"/>
    <use x="116.992188" xlink:href="#DejaVuSans-99"/>
    <use x="171.972656" xlink:href="#DejaVuSans-32"/>
    <use x="203.759766" xlink:href="#DejaVuSans-76"/>
    <use x="259.457031" xlink:href="#DejaVuSans-233"/>
    <use x="320.980469" xlink:href="#DejaVuSans-109"/>
    <use x="418.392578" xlink:href="#DejaVuSans-97"/>
    <use x="479.671875" xlink:href="#DejaVuSans-110"/>
    <use x="543.050781" xlink:href="#DejaVuSans-44"/>
    <use x="574.837891" xlink:href="#DejaVuSans-32"/>
    <use x="606.625" xlink:href="#DejaVuSans-78"/>
    <use x="681.429688" xlink:href="#DejaVuSans-111"/>
    <use x="742.611328" xlink:href="#DejaVuSans-118"/>
    <use x="801.759766" xlink:href="#DejaVuSans-45"/>
    <use x="837.84375" xlink:href="#DejaVuSans-50"/>
    <use x="901.466797" xlink:href="#DejaVuSans-48"/>
    <use x="965.089844" xlink:href="#DejaVuSans-49"/>
    <use x="1028.712891" xlink:href="#DejaVuSans-53"/>
    <use x="1092.335938" xlink:href="#DejaVuSans-32"/>
    <use x="1124.123047" xlink:href="#DejaVuSans-45"/>
    <use x="1160.207031" xlink:href="#DejaVuSans-32"/>
    <use x="1191.994141" xlink:href="#DejaVuSans-68"/>
    <use x="1268.996094" xlink:href="#DejaVuSans-101"/>
    <use x="1330.519531" xlink:href="#DejaVuSans-99"/>
    <use x="1385.5" xlink:href="#DejaVuSans-45"/>
    <use x="1421.583984" xlink:href="#DejaVuSans-50"/>
    <use x="1485.207031" xlink:href="#DejaVuSans-48"/>
    <use x="1548.830078" xlink:href="#DejaVuSans-49"/>
    <use x="1612.453125" xlink:href="#DejaVuSans-57"/>
   </g>
  </g>
 </g>
 <defs>
  <clipPath id="pa29b568c88">
   <rect height="277.2" width="446.4" x="53.53875" y="57.6"/>
  </clipPath>
 </defs>
</svg>
